<svg xmlns="http://www.w3.org/2000/svg" viewBox="0 0 60 60"><defs><style>.cls-1{fill:#fff6b1;}.cls-2{fill:none;stroke:#0042ff;stroke-linecap:round;stroke-linejoin:round;stroke-width:3px;}</style></defs><title>auto</title><g id="Ebene_2" data-name="Ebene 2"><circle class="cls-1" cx="30" cy="30" r="30"/></g><g id="Auto"><path class="cls-2" d="M11.73,39.22a3.48,3.48,0,0,0,1.46,2.6,5.75,5.75,0,0,0,2.48.79,3.57,3.57,0,0,0,2-.16,3,3,0,0,0,1.36-1.89A5.11,5.11,0,0,0,19,37.11a4,4,0,0,0-2.3-2.17C14,34,11.57,36.54,11.73,39.22Z"/><path class="cls-2" d="M40.69,41.22a5.12,5.12,0,0,0,3.8,1.34,3.46,3.46,0,0,0,1.42-.35,3.24,3.24,0,0,0,1.43-2.29c.45-2.37-1.08-6.57-4.32-5.53C40.19,35.31,38.43,39,40.69,41.22Z"/><path class="cls-2" d="M23.09,39.61a111,111,0,0,0,12,0"/><path class="cls-2" d="M9,40.62a20,20,0,0,1-4.63-.24,1.3,1.3,0,0,1-.66-.25,1.38,1.38,0,0,1-.27-1.2L4,32.09a6.34,6.34,0,0,1,.52-2.37c.85-1.7,3-2.3,4.85-2.54s3.94-.35,5.37-1.61c2-1.71,2-4.94,4-6.56a7.65,7.65,0,0,1,4.11-1.25,67.1,67.1,0,0,1,11.94-.28c1.68.14,1.95.9,3,2.15,1.29,1.57,2.62,3.1,3.93,4.65a9.27,9.27,0,0,0,1.39,1.41c2.1,1.59,5.07,1,7.63,1.68a8.33,8.33,0,0,1,4.9,3.47,5.08,5.08,0,0,1,.94,3.25,4.8,4.8,0,0,1-1.88,3.12,34,34,0,0,1-4.43,2.84"/><path class="cls-2" d="M14.67,27.43a239.76,239.76,0,0,0,28.87-.24"/><path class="cls-2" d="M26.12,18.92Q26.8,29.41,28,39.76"/></g></svg>