<svg xmlns="http://www.w3.org/2000/svg" viewBox="0 0 60 60"><defs><style>.cls-1,.cls-3{fill:#fff6b1;}.cls-2{fill:none;}.cls-2,.cls-3{stroke:#0042ff;stroke-linecap:round;stroke-linejoin:round;stroke-width:3px;}</style></defs><title>blumenstrauss</title><g id="Ebene_2" data-name="Ebene 2"><circle class="cls-1" cx="30" cy="30" r="30"/></g><g id="Ebene_34" data-name="Ebene 34"><path class="cls-2" d="M29.51,16.56a5.53,5.53,0,0,0,4,0,4.28,4.28,0,0,0,2.58-3A2.5,2.5,0,0,0,36,11.93a1.46,1.46,0,0,0-1.4-.77A6.06,6.06,0,0,0,36.68,9a3.42,3.42,0,0,0,.25-2.94,3.12,3.12,0,0,0-2.55-1.79,4,4,0,0,0-3,1.07,1.19,1.19,0,0,0-.14-1.63,2.85,2.85,0,0,0-1.66-.63c-2.3-.29-3.07,1.57-3.42,2.69"/><path class="cls-2" d="M31.21,9.55a.94.94,0,0,0-.73.09"/><path class="cls-3" d="M33.85,15.05a4.1,4.1,0,0,0,2.73,1.12,2.62,2.62,0,0,0-1.87,2.75,4.47,4.47,0,0,0,1.8,3c1.29,1,3.3,1.51,4.54.41a4.28,4.28,0,1,0,6.47-5,3,3,0,0,0,2.62-1.54A4.66,4.66,0,0,0,51,12.73a3.1,3.1,0,0,0-1.85-2.52c-1.7-.66-3.54.58-4.71,2a2.68,2.68,0,0,0-.64-2.79A5.62,5.62,0,0,0,41.16,8a6.47,6.47,0,0,0-3.77-.11C35.41,8.53,32.26,13.07,33.85,15.05Z"/><path class="cls-2" d="M41.68,15c-.35.23-.74.51-.81.92s.48.87.78.56a1.42,1.42,0,0,0,.15-.93"/><path class="cls-2" d="M18.09,37c1,1,8.34,3.07,12.19,2.76"/><path class="cls-2" d="M23.31,40.7a3,3,0,0,0-1.94,1.21"/><path class="cls-2" d="M24.1,40.7A11.42,11.42,0,0,1,24,44.2"/><path class="cls-2" d="M38,25.61C31,33.16,26.58,45,23.42,53.07c0,0-1.1-.45-6.83-1.19.51-2.26,4.55-16.77,1.38-30.5A25.33,25.33,0,0,0,38,25.61Z"/><path class="cls-2" d="M35.58,21.74l-1.85,3.2"/><path class="cls-2" d="M30.44,17q-.39,4-1,7.92"/><path class="cls-2" d="M22.59,19A17.68,17.68,0,0,1,24,23.8"/><path class="cls-2" d="M19,52.75A19.44,19.44,0,0,1,17.84,56"/><path class="cls-2" d="M20.29,53.48a22.58,22.58,0,0,0-.66,3.45"/><path class="cls-2" d="M22,53.56l-.25,1.6"/><path class="cls-3" d="M12.1,15.56A6.31,6.31,0,0,0,16.59,19a5.59,5.59,0,0,0,3.7-.19,3.1,3.1,0,0,0,1.87-3A3.48,3.48,0,0,0,27,16.7a3.48,3.48,0,0,0,.4-4.93c-.39-.42-1-.74-1.52-.42A1.58,1.58,0,0,0,27,10.09a3.21,3.21,0,0,0-.21-1.73,5.24,5.24,0,0,0-2-2.73,3.33,3.33,0,0,0-3.31-.19,2.46,2.46,0,0,0-1.09,3,5.08,5.08,0,0,0-8.07-.67c-.28.31-.54.76-.36,1.14.28.59,1.52.81,1.62,1.44s-.83,1.13-1.11,1.59A4.11,4.11,0,0,0,12.1,15.56Z"/><path class="cls-2" d="M20.2,11.8a.72.72,0,0,0-.81.53.69.69,0,0,0,.57.31"/></g></svg>