<svg xmlns="http://www.w3.org/2000/svg" viewBox="0 0 60 60"><defs><style>.cls-1{fill:#fff6b1;}.cls-2{fill:none;stroke:#0042ff;stroke-linecap:round;stroke-linejoin:round;stroke-width:3px;}</style></defs><title>buecher-magazine</title><g id="Ebene_2" data-name="Ebene 2"><circle class="cls-1" cx="30" cy="30" r="30"/></g><g id="Bücher_Magazine" data-name="Bücher Magazine"><path class="cls-2" d="M6.41,48.79c8.51.12,17.51.83,25.72,3.07,7.11-1.1,14.26-2,21.41-2.75.11-12.08.07-24.23-.37-36.31a78.9,78.9,0,0,0-16.53,4.05c-2.39.87-4.84,1.92-6.54,3.82a9.88,9.88,0,0,0-3.71-1.54A48.83,48.83,0,0,0,9.19,18C8.76,28.28,7.38,38.55,6.41,48.79Z"/><path class="cls-2" d="M13.3,16.73a12.75,12.75,0,0,1,0-2.14,51.61,51.61,0,0,1,6.34-.12,11.23,11.23,0,0,1,2.95.41,13,13,0,0,1,2.57,1.26,5.29,5.29,0,0,1,2.63,2.54"/><path class="cls-2" d="M30,19.53a36.77,36.77,0,0,0-1.36-5.85,2.11,2.11,0,0,0-.46-.89,2.19,2.19,0,0,0-.89-.44,31.8,31.8,0,0,0-7.11-1.23,3.58,3.58,0,0,0-1.63.15,1.33,1.33,0,0,0-.91,1.24"/><path class="cls-2" d="M47.4,13a15.09,15.09,0,0,1-.86-3.16,38.53,38.53,0,0,0-9.32,1.79,12.83,12.83,0,0,0-7.16,5.92"/><path class="cls-2" d="M40.07,9.62A3,3,0,0,0,38.55,8.2a2.58,2.58,0,0,0-.92,0,10,10,0,0,0-5.21,2.08,20.36,20.36,0,0,0-3.05,3.24"/><path class="cls-2" d="M29.87,21.44q.43,4.06,1.05,8.1"/><path class="cls-2" d="M31.36,41.14,32,51.28"/><path class="cls-2" d="M36.86,25.35a48.8,48.8,0,0,1,8.44-1.89"/><path class="cls-2" d="M39.39,29.57l4.71-1.11"/><path class="cls-2" d="M38.06,44.28a74.07,74.07,0,0,1,10.38-1.45"/></g></svg>