<svg xmlns="http://www.w3.org/2000/svg" viewBox="0 0 60 60"><defs><style>.cls-1{fill:#fff6b1;}.cls-2{fill:none;stroke:#0042ff;stroke-linecap:round;stroke-linejoin:round;stroke-width:3px;}</style></defs><title>coaching</title><g id="Ebene_2" data-name="Ebene 2"><circle class="cls-1" cx="30" cy="30" r="30"/></g><g id="Coaching"><path class="cls-2" d="M19.11,40.67c-.84,1.15-1.78,2.22-2.72,3.29l-3.57,4c-.38.42-.71-.34-.93.17a29,29,0,0,0,2.29-9.3C11,38.31,8.1,37.06,6.47,34.13,4.08,29.83,2.77,24,4.17,19.2,6,12.85,11.75,8.6,18.12,7.57a53.81,53.81,0,0,1,8.23-.33c3.65,0,7.5.39,10.6,2.5,3.46,2.36,5.48,6.52,6.23,10.55A17,17,0,0,1,38.62,35.1c-5.16,5.2-12.56,6-19.51,5.57"/><path class="cls-2" d="M47.41,20.63c6.34-.33,7.85,4.13,8.32,6.25,2.66,12-3.18,16.6-6.81,17A48.36,48.36,0,0,1,49,52.76c-2.52-1.38-5.3-5.92-7.82-7.3-6.14,1.59-7.58.11-9-2"/><path class="cls-2" d="M12.29,18.85a11.1,11.1,0,0,1,3-1.59,2,2,0,0,1,1.74,0c.42.28.62.84,1.1,1a1.25,1.25,0,0,0,.74,0c1.58-.43,2.74-2.24,4.37-2.06,1.19.12,2,1.28,3.2,1.53s2.45-.58,3.45-1.38"/><path class="cls-2" d="M11.19,24.7q2.88-.51,5.79-.83A3.59,3.59,0,0,0,17.27,25l1.34-1c.24-.17.58-.35.8-.16"/><path class="cls-2" d="M24.59,23.7l4.73-.33a19.07,19.07,0,0,1,2.27-.06,9.43,9.43,0,0,0,1.84,0,7.26,7.26,0,0,1,2.49-.41"/><path class="cls-2" d="M12.18,31.9c.92-.38,1.74-1,2.65-1.37a3.45,3.45,0,0,1,2.89-.17c.41.2.75.52,1.14.75a3.3,3.3,0,0,0,4.08-.68c.26-.31.63-.73,1-.54s.3.47.49.69c.34.4,1,.26,1.46,0a5.91,5.91,0,0,0,2.23-2"/><path class="cls-2" d="M41.41,39.26c-.2.2.21-.19,0,0"/><path class="cls-2" d="M46,38.26c0,.31.23-.22,0,0"/><path class="cls-2" d="M50.55,37h0"/></g></svg>