<svg xmlns="http://www.w3.org/2000/svg" viewBox="0 0 60 60"><defs><style>.cls-1{fill:#fff6b1;}.cls-2{fill:none;stroke:#0042ff;stroke-linecap:round;stroke-linejoin:round;stroke-width:3px;}</style></defs><title>cocktail</title><g id="Ebene_2" data-name="Ebene 2"><circle class="cls-1" cx="30" cy="30" r="30"/></g><g id="Cocktail"><path class="cls-2" d="M26.77,55.84A74.09,74.09,0,0,1,41.5,54.4"/><path class="cls-2" d="M34.23,52.71a78.18,78.18,0,0,1-1.4-9.19"/><path class="cls-2" d="M41.25,13.65a22.66,22.66,0,0,0-4.39,5.72,7.6,7.6,0,0,0,0,7,23.1,23.1,0,0,0,2.64,3.05c2.29,2.68,3,6.93.93,9.76-1.67,2.23-4.59,3.07-7.33,3.61-2.93.57-6.1.92-8.8-.36S19.72,37.61,21.2,35c.37-.65.9-1.18,1.28-1.82,1.63-2.76-.12-6.28-2.21-8.72-1.16-1.36-4.61-4.27-4.5-6.25.15-2.63,3.7-2.12,5.87-2.36Z"/><path class="cls-2" d="M33.29,13.73C32,11.63,33,8.65,35,7.16s4.63-1.78,7.11-1.65,5,.71,6.44,2.59A8.63,8.63,0,0,1,50,13.26c.07,2.28-.22,4.76-1.79,6.41a8.67,8.67,0,0,1-3.85,2.08,9.91,9.91,0,0,1-4,.55,4.53,4.53,0,0,1-3.41-1.93"/><path class="cls-2" d="M21.47,25.42a4.9,4.9,0,0,1,4.87-1.26,7.92,7.92,0,0,0,2.38.7c1.62,0,2.73-1.8,4.33-2.08a5.06,5.06,0,0,1,2.75.58"/><path class="cls-2" d="M25.19,26.66a14.23,14.23,0,0,0-1.06,2.81,5.92,5.92,0,0,1,3.62-1.88l-3.19,3.29a3.69,3.69,0,0,0-1.4,2.73,43.6,43.6,0,0,1,7.68-6.87c-.44,2.14-2.05,3.82-3.49,5.47S24.52,35.84,24.68,38c2.57-4.42,5.19-8.91,8.86-12.48.44.66,0,1.54-.39,2.2C31.73,30,30,32,28.58,34.18A14.16,14.16,0,0,0,26,41.54a118,118,0,0,0,10.6-12.62,104.16,104.16,0,0,0-5.08,12.52l6.57-8L35.8,40.18a16.46,16.46,0,0,1,3.35-4.5l-1.21,4"/><path class="cls-2" d="M26.29,24.61A94.17,94.17,0,0,1,17.65,4.16C14.59,8,12.22,13.65,9.81,19.8"/></g></svg>