<svg xmlns="http://www.w3.org/2000/svg" viewBox="0 0 60 60"><defs><style>.cls-1{fill:#fff6b1;}.cls-2{fill:none;stroke:#0042ff;stroke-linecap:round;stroke-miterlimit:10;stroke-width:3px;}</style></defs><title>einkaufen</title><g id="Ebene_2" data-name="Ebene 2"><circle class="cls-1" cx="30" cy="30" r="30"/></g><g id="einkaufen"><path class="cls-2" d="M22.88,47.48c-1.24.1-2.75.38-3.15,1.56a2.62,2.62,0,0,0-.08,1.15,7.85,7.85,0,0,0,.48,2,2.91,2.91,0,0,0,.78,1.22,3.63,3.63,0,0,0,2.76.45,1.5,1.5,0,0,0,.76-.22,1.52,1.52,0,0,0,.45-1,7,7,0,0,0-.16-3.84,2.91,2.91,0,0,0-3-1.92"/><path class="cls-2" d="M47.16,37a4.86,4.86,0,0,0-.07,3,3.08,3.08,0,0,0,.58,1.24,4.05,4.05,0,0,0,2.8,1,2.63,2.63,0,0,0,1.5-.16,2,2,0,0,0,.87-1.26,4.47,4.47,0,0,0-.59-3.74C50.92,35.13,48.2,34.3,47.16,37Z"/><path class="cls-2" d="M15.85,46.66a66.74,66.74,0,0,1,13.21-6.58q10.55-4.23,21.37-7.73"/><path class="cls-2" d="M43.61,33.38l-3-25c1.34-.63,2.63-1.67,4-2.3"/><path class="cls-2" d="M41,13.6c-9.61,4.54-19.23,9.09-28.4,14.47A50.06,50.06,0,0,0,7,32.35c-.21,2,1.72,5,2.82,6.61l4.72,6.94"/><path class="cls-2" d="M10.44,36.28c9.27-5.82,19.73-9.53,29.76-14a5.66,5.66,0,0,0,2-1.26"/><path class="cls-2" d="M12.58,41.7c8.75-5.52,18.62-9,28.09-13.26a5.59,5.59,0,0,0,1.92-1.19"/><path class="cls-2" d="M12.33,26.77a111.11,111.11,0,0,1,6.59,17.69"/><path class="cls-2" d="M19.62,22.62Q21.89,32.3,23.81,42"/><path class="cls-2" d="M25.74,19.11A143.33,143.33,0,0,1,30.68,38.3"/><path class="cls-2" d="M33.14,16.77a103.76,103.76,0,0,1,4.54,18.67"/></g></svg>