<svg xmlns="http://www.w3.org/2000/svg" viewBox="0 0 60 60"><defs><style>.cls-1{fill:#fff6b1;}.cls-2{fill:none;stroke:#0042ff;stroke-linecap:round;stroke-linejoin:round;stroke-width:3px;}</style></defs><title>eis</title><g id="Ebene_2" data-name="Ebene 2"><circle class="cls-1" cx="30" cy="30" r="30"/></g><g id="Eis"><path class="cls-2" d="M29.35,26.25c-1.06-.29-2.1-1-3.17-1.36a10.07,10.07,0,0,0-5.43.28,54.67,54.67,0,0,0,2.63,11.61q1.43,4.62,3,9.17.8,2.28,1.63,4.55c.41,1.09.84,3.6,1.68,4.4,2.12,2,3-3.62,3.3-4.69q1.33-4.53,3-9c1.18-3.22,2.47-6.41,3.88-9.54,1.27-2.85,2.93-4.62,3.08-7.74-.71,1.84-1.85.79-3,1.2-.38.14-.8.14-1.17.29a2.71,2.71,0,0,0-1.33,2.63,9.44,9.44,0,0,1-.11,3.1,2.43,2.43,0,0,1-2,1.78c-1,.09-1.76-.95-1.89-1.91a23.64,23.64,0,0,1,.18-2.9c0-1-.53-2.1-1.5-2.2-1.4-.14-1.55,1.22-2.68-.23-.94-1.21-1.21-3.91-1.31-5.38A8.35,8.35,0,0,1,29.46,15a8,8,0,0,1,4.87-3,12.52,12.52,0,0,1,5.1-.15,7.54,7.54,0,0,1,4,1.72,5.59,5.59,0,0,1,2,3.41c.59,3.68.18,5.89-3.83,7.64"/><path class="cls-2" d="M28.59,17c-1.08-1.69-3.67-2.88-6.35-2.91a7,7,0,0,0-3.79.94,4.4,4.4,0,0,0-1.36,1.51c-1.5,2.68-.46,6,2.89,7.75"/><path class="cls-2" d="M22.29,13.9A6,6,0,0,1,23,7a5.94,5.94,0,0,1,6.87-1.21,7.4,7.4,0,0,1,3.63,5.36"/><path class="cls-2" d="M23.15,35.06a14.88,14.88,0,0,0,3.78-2,13.21,13.21,0,0,0,1.47-1.22"/><path class="cls-2" d="M24.59,39.89a10,10,0,0,0,3.5-2.13"/></g></svg>