<svg xmlns="http://www.w3.org/2000/svg" viewBox="0 0 60 60"><defs><style>.cls-1{fill:#fff6b1;}.cls-2{fill:none;stroke:#0042ff;stroke-linecap:round;stroke-linejoin:round;stroke-width:3px;}</style></defs><title>familie</title><g id="Ebene_2" data-name="Ebene 2"><circle class="cls-1" cx="30" cy="30" r="30"/></g><g id="Familie"><path class="cls-2" d="M20.72,35.17,20.11,48"/><path class="cls-2" d="M24.7,34.46a110.64,110.64,0,0,0,.39,14.11"/><path class="cls-2" d="M30.92,33.11q-2.28-5.47-4.82-10.85a63.63,63.63,0,0,0-.32,12l-5.59.25c-.07-4.51-.33-8.8-.4-13.32L16.22,34"/><path class="cls-2" d="M17.72,28.59c.33-1.26.66-3.32,1-4.59a11.29,11.29,0,0,1,1-2.9c1.15-2,3-1.59,4.75-1.6,2,0,4.21,5.5,4.46,7.93"/><path class="cls-2" d="M35.49,19.82a5.24,5.24,0,0,0-.65,1.94q-1.55,7.83-3,15.67a63,63,0,0,1,9.9-.52,19.78,19.78,0,0,1-2.43-7.43c-.4-2.59-.54-5.22-.94-7.81C38.15,20.24,36.93,17.62,35.49,19.82Z"/><path class="cls-2" d="M35.33,37a71.71,71.71,0,0,0-.45,11.53"/><path class="cls-2" d="M39.35,36.56c0,3.93-.1,7.87-.39,11.77"/><path class="cls-2" d="M30.72,31.69l.86-5.83A12.44,12.44,0,0,1,32.9,21.2a4.25,4.25,0,0,1,4-2.23c1.51.23,3,1.92,3.8,3.24a22.28,22.28,0,0,1,1.76,4.21l2.33,6.77"/><path class="cls-2" d="M21.6,12.07a2.87,2.87,0,0,0-.66,2.61,2.35,2.35,0,0,0,2,1.71,1.93,1.93,0,0,0,1.48-.55,2.24,2.24,0,0,0,.52-1.11,2.72,2.72,0,0,0-.24-1.86C24.16,11.88,22.49,11.06,21.6,12.07Z"/><path class="cls-2" d="M34.87,13.34a2.6,2.6,0,0,0,.76,2.16,1.74,1.74,0,0,0,2.17.16,3.46,3.46,0,0,0,1.21-2c.08-1-.6-2.38-1.87-2.27A2.54,2.54,0,0,0,34.87,13.34Z"/><path class="cls-2" d="M49.55,29.46a3.72,3.72,0,0,0,.21,1,.78.78,0,0,0,.2.37.68.68,0,0,0,.48.14,1.82,1.82,0,0,0,1.38-.4,1.58,1.58,0,0,0,.38-1,1.33,1.33,0,0,0-.06-.52C51.65,27.76,49.51,28,49.55,29.46Z"/><path class="cls-2" d="M45.32,33a7.25,7.25,0,0,1,2.82,1.77c.45-.36.61-1,1-1.43a2,2,0,0,1,2.15-.67,6.38,6.38,0,0,1,2.68,2.38,8.79,8.79,0,0,1,.61,1,29.43,29.43,0,0,1,2.27,4.48"/><path class="cls-2" d="M49.11,34.14c-.39,1.54.09,3.19-.19,4.75A9.89,9.89,0,0,1,46.75,43l1.13.14c.07,0,.14,0,.17.07a.2.2,0,0,1,0,.15l0,4.55"/><path class="cls-2" d="M51.69,33.11,52,42.26a1,1,0,0,0,.06.35c.17.33.64.31,1,.2s.77-.24,1.06,0c-.37.31-1,.22-1.29.62a1.12,1.12,0,0,0-.14.68l0,3.8"/><path class="cls-2" d="M48.56,42.81A8.87,8.87,0,0,0,51,42.23a1.51,1.51,0,0,1-1.07-1.39c-.08-.62,0-1.26-.11-1.87"/><path class="cls-2" d="M7.76,28.48A1.81,1.81,0,0,0,7.84,30a1.71,1.71,0,0,0,1.05.63A1.23,1.23,0,0,0,10,30.44a1,1,0,0,0,.3-.55,2.11,2.11,0,0,0-.13-1.56C9.53,27.18,8.12,27.19,7.76,28.48Z"/><path class="cls-2" d="M16.88,31.29l-5.1,2.86a1.43,1.43,0,0,1-.43.17,1.53,1.53,0,0,1-.63-.11,4.34,4.34,0,0,0-4.31.5,6.14,6.14,0,0,0-1.3,2.41A36.52,36.52,0,0,1,3.19,41.4"/><path class="cls-2" d="M11.19,48.49a84.43,84.43,0,0,1-.68-13.58"/><path class="cls-2" d="M6.77,47.81c.49-2.78.08-5.65.58-8.43.19-1.09.53-2.16.62-3.27"/><path class="cls-2" d="M7.73,41a13.2,13.2,0,0,0,1.66-.34"/><path class="cls-2" d="M8.8,39.64,9,38.29"/><path class="cls-2" d="M52.37,36.86a9.71,9.71,0,0,0,.26,2,23.35,23.35,0,0,0,1.14,3.46"/><path class="cls-2" d="M50.37,34.85a35.73,35.73,0,0,0,.06,4.39"/></g></svg>