<svg xmlns="http://www.w3.org/2000/svg" viewBox="0 0 60 60"><defs><style>.cls-1{fill:#fff6b1;}.cls-2{fill:none;stroke:#0042ff;stroke-linecap:round;stroke-miterlimit:10;stroke-width:3px;}</style></defs><title>feinkost</title><g id="Ebene_2" data-name="Ebene 2"><circle class="cls-1" cx="30" cy="30" r="30"/></g><g id="Ebene_25" data-name="Ebene 25"><path class="cls-2" d="M34.59,24.1C31.82,18.84,29,13.35,28.81,7.4a1.81,1.81,0,0,1,.49-1.57,1.61,1.61,0,0,1,1.31-.14A6.84,6.84,0,0,1,33.9,7.85a14.1,14.1,0,0,1,3.53,8.59c.17,2.84-.37,8.17-3,9.75-3.25,1.93-6.62,3.5-9.36,6.17"/><path class="cls-2" d="M48.34,21.08c-5.12,1.07-10.86,3.7-15.54,6"/><path class="cls-2" d="M21.88,16.56a21.57,21.57,0,0,1,10.58,9.13c-3.09-.19-6.18.63-9.27.37a14.92,14.92,0,0,1-8.62-3.87c-1.29-1.17-8.44-6.55-6-8.44,0,0,6.39.91,7.61,1.13A27.9,27.9,0,0,1,21.88,16.56Z"/><path class="cls-2" d="M33.52,42.27a16.75,16.75,0,0,0,.7,3,12.39,12.39,0,0,0,2,3.64,10.65,10.65,0,0,0,5.69,3.87,8.06,8.06,0,0,0,6.68-1.19,12.12,12.12,0,0,0,3.28-4.21,14.63,14.63,0,0,0,1.31-3.08,13.23,13.23,0,0,0-1.24-9c-2-4.17-5.28-7.2-10.07-7.41-3.58-.16-6.57,3.43-7.71,6.53A16,16,0,0,0,33.52,42.27Z"/><path class="cls-2" d="M39.68,33.74a4.93,4.93,0,0,0,.27,7.2"/><path class="cls-2" d="M16.36,31.81a15.74,15.74,0,0,0-7.87,6.37,13.28,13.28,0,0,0-1.66,9.91A9.12,9.12,0,0,0,8,50.83a8.11,8.11,0,0,0,5.55,3.44A11.21,11.21,0,0,0,20,53.16a13.85,13.85,0,0,0,5.68-19.87C23.8,30.34,19.23,30.73,16.36,31.81Z"/><path class="cls-2" d="M18.87,36.9a.83.83,0,0,0-.55-.59,2.39,2.39,0,0,0-.84-.1,8.06,8.06,0,0,0-2.45.27,2.64,2.64,0,0,0-1.76,1.62,4,4,0,0,0,.43,2.59"/></g></svg>