<?xml version="1.0" encoding="utf-8"?>
<!-- Generator: Adobe Illustrator 24.0.1, SVG Export Plug-In . SVG Version: 6.00 Build 0)  -->
<svg version="1.1" xmlns="http://www.w3.org/2000/svg" xmlns:xlink="http://www.w3.org/1999/xlink" x="0px" y="0px"
	 viewBox="0 0 60 60" style="enable-background:new 0 0 60 60;" xml:space="preserve">
<style type="text/css">
	.st0{fill:#FFF6B1;}
	.st1{display:none;}
	.st2{display:inline;}
	.st3{fill:none;stroke:#0042FF;stroke-width:3;stroke-linecap:round;stroke-linejoin:round;stroke-miterlimit:10;}
	.st4{display:inline;fill:none;stroke:#0042FF;stroke-width:3;stroke-linecap:round;stroke-linejoin:round;stroke-miterlimit:10;}
	.st5{fill:#FFF6B1;stroke:#0042FF;stroke-width:3;stroke-linecap:round;stroke-linejoin:round;stroke-miterlimit:10;}
</style>
<g id="Ebene_2">
	<circle class="st0" cx="30" cy="30" r="30"/>
</g>
<g id="Kaffee" class="st1">
	<g class="st2">
		<path class="st3" d="M8.16,56.35c16.79-3.64,26.74-5.9,43.82-5.76"/>
		<path class="st3" d="M8.16,32.4c-0.17-1.16-0.25-2.37,0.12-3.49c0.98-2.95,4.52-4.12,7.6-4.78c6.01-1.28,12.11-2.18,18.24-2.71
			c2.32-0.2,4.86-0.29,6.75,1.06c2.54,1.81,2.81,5.39,2.69,8.47c-0.18,4.89-0.75,9.77-1.69,14.58c-0.19,0.99-0.42,2.01-1.07,2.78
			c-0.79,0.93-2.04,1.33-3.23,1.65c-5.15,1.4-14.52,4.83-19.47,1.47C12.91,47.9,9.01,38.24,8.16,32.4z"/>
		<path class="st3" d="M43.27,25.52c0.4-0.06,0.8-0.11,1.21-0.13c3.23-0.14,6.31,2.61,6.54,5.83c0.23,3.22-2.42,6.38-5.64,6.71"/>
		<path class="st3" d="M23.63,3.76c-1.14-0.5-2.45,0.67-2.57,1.91s0.57,2.4,1.29,3.42c0.72,1.02,1.52,2.05,1.71,3.28
			c0.24,1.59-0.76,3.27-2.27,3.83"/>
		<path class="st3" d="M28.69,9.66c-0.7,0.39-0.8,1.39-0.47,2.12c0.33,0.72,0.96,1.26,1.49,1.85c0.53,0.59,1,1.34,0.89,2.13
			c-0.12,0.83-0.84,1.42-1.51,1.93"/>
	</g>
</g>
<g id="Kaffeebohne" class="st1">
	<g class="st2">
		<path class="st3" d="M12.01,46.03c7.05,7.97,18.65,4.4,28.83-4.64s13.78-21.6,8.04-28.07s-18.65-4.4-28.83,4.64
			S4.25,36.6,12.01,46.03z"/>
		<path class="st3" d="M50.58,15.61c-6.05-0.6-14.66,0.1-19.69,3.51c-1.56,1.06-3.1,2.43-3.49,4.28c-0.25,1.19,0.01,2.42,0.19,3.62
			c0.39,2.57,0.32,5.44-1.32,7.46c-1.07,1.32-2.67,2.08-4.23,2.76c-3.7,1.6-7.53,2.93-11.42,3.97"/>
		<path class="st3" d="M9.63,42.31c4.41,0.61,9.53,0.75,13.68-0.86c2.27-0.88,4.55-1.87,6.38-3.48c2.6-2.3,4.07-5.8,3.9-9.27
			c-0.09-1.77-0.57-3.61,0.08-5.25c0.8-2.03,3.03-3.05,5.07-3.83c3.9-1.49,7.85-2.83,11.85-4.02"/>
	</g>
</g>
<g id="Cocktail" class="st1">
	<g class="st2">
		<path class="st3" d="M23.9,55.18c4.82-0.97,9.78-1.45,14.74-1.44"/>
		<path class="st3" d="M31.37,52.04c-0.65-3.05-1.12-6.11-1.4-9.19"/>
		<path class="st3" d="M38.38,12.99c-1.67,1.75-3.36,3.54-4.38,5.73s-1.27,4.88-0.04,6.96c0.69,1.16,1.76,2.02,2.63,3.05
			c2.29,2.68,3.04,6.93,0.93,9.76c-1.67,2.23-4.59,3.07-7.33,3.61c-2.93,0.57-6.1,0.93-8.8-0.35c-2.7-1.28-4.54-4.78-3.05-7.37
			c0.37-0.64,0.9-1.18,1.27-1.81c1.63-2.76-0.12-6.28-2.2-8.72c-1.16-1.36-4.62-4.27-4.5-6.25c0.15-2.63,3.7-2.12,5.87-2.36
			C25.31,14.47,31.85,13.73,38.38,12.99z"/>
		<path class="st3" d="M30.42,13.07c-1.33-2.1-0.31-5.08,1.68-6.57s4.63-1.78,7.12-1.65c2.38,0.12,4.96,0.71,6.43,2.59
			c1.12,1.43,1.39,3.34,1.44,5.16c0.06,2.28-0.23,4.76-1.8,6.42c-1.01,1.07-2.43,1.65-3.84,2.08c-1.29,0.4-2.65,0.69-3.99,0.55
			c-1.35-0.14-2.69-0.79-3.41-1.93"/>
		<path class="st3" d="M18.61,24.76c1.22-1.28,3.18-1.78,4.87-1.26c0.79,0.25,1.55,0.7,2.38,0.69c1.62-0.03,2.74-1.79,4.34-2.07
			c0.93-0.16,1.87,0.21,2.74,0.58"/>
		<path class="st3" d="M22.33,26c-0.46,0.89-0.81,1.84-1.06,2.81c0.94-1.03,2.24-1.71,3.62-1.88c-1.06,1.1-2.13,2.2-3.19,3.3
			c-0.74,0.76-1.53,1.67-1.4,2.73c2.28-2.58,4.86-4.9,7.68-6.87c-0.43,2.15-2.05,3.82-3.49,5.48c-1.44,1.65-2.83,3.62-2.67,5.81
			c2.58-4.43,5.2-8.91,8.86-12.48c0.44,0.66,0.04,1.54-0.39,2.2c-1.43,2.21-3.15,4.22-4.57,6.44c-1.42,2.22-2.54,4.73-2.56,7.36
			c3.73-4.04,7.47-8.1,10.59-12.62c-1.87,4.1-3.75,8.22-5.08,12.53c2.19-2.67,4.38-5.35,6.57-8.02c-0.77,2.25-1.54,4.51-2.31,6.76
			c0.85-1.68,1.99-3.21,3.35-4.5c-0.4,1.32-0.81,2.64-1.21,3.96"/>
	</g>
</g>
<g id="Pizza" class="st1">
	<g class="st2">
		<path class="st3" d="M43.99,28.39c3.98-2.43,6.46-4.23,6.64-4.48c0.85-1.23,1.13-2.75,1.27-4.24c0.17-1.83,0.13-3.77-0.72-5.4
			c-0.29-0.56-0.7-1.09-1.28-1.34c-0.53-0.23-1.14-0.21-1.7-0.06c-1.39,0.37-2.49,1.46-3.2,2.7c-0.71,1.25-1.07,2.66-1.41,4.05"/>
		<path class="st3" d="M13.95,41.87c7.36-2,14.58-5.13,20.64-8.23c0.19-0.1,0.39-0.2,0.58-0.3"/>
		<path class="st3" d="M10.52,47.64c1.11,0.23,2.17-0.73,2.54-1.8s0.25-2.24,0.27-3.37c0.02-1.13,0.23-2.36,1.06-3.13
			c0.84-0.77,2.07-0.87,3.2-0.99c1.43-0.15,2.85-0.4,4.25-0.74c0.89-0.22,1.78-0.48,2.57-0.94c0.76-0.45,1.4-1.09,2.01-1.74
			c1.18-1.25,2.29-2.58,3.32-3.95c0.38-0.51,0.77-1.04,1.35-1.29c0.77-0.33,1.7-0.05,2.33,0.5c0.63,0.55,1.01,1.33,1.31,2.12
			c0.07,0.19,0.37,1.89,0.5,2.04c0.3,0.35,1.09,2.65,1.53,2.5c0.76-0.26,0.99-3.26,1.21-4.03c0.22-0.77,0-3.07-0.03-3.87
			c-0.04-0.99-0.08-1.98-0.12-2.98c1.27,0.52,2.35,1.48,3.03,2.68c0.28,0.49,0.49,1.02,0.87,1.44c0.38,0.41,0.99,0.69,1.51,0.48
			c0.75-0.3,0.84-1.3,0.8-2.11c-0.14-2.38-0.46-4.75-0.96-7.09c-0.09-0.42-0.2-0.86-0.46-1.2c-0.27-0.34-0.67-0.55-1.07-0.73
			c-3.89-1.8-8.28-2.48-12.53-1.94c-0.65,0.08-1.3,0.19-1.89,0.48c-0.63,0.3-1.15,0.78-1.66,1.25c-3.72,3.41-7.52,6.74-11.39,9.98
			c-2.37,1.98-4.9,4.12-5.73,7.1C7.49,39.26,9.49,44.74,10.52,47.64"/>
		<path class="st3" d="M29.24,23.83c0.43,0.75,1.37,1.03,2.23,1.1c0.59,0.05,1.21,0.02,1.72-0.27c0.47-0.27,0.79-0.74,1.01-1.24
			c0.33-0.75,0.45-1.59,0.34-2.41c-0.19-1.44-2.79-1.64-3.94-1.3C29.04,20.18,28.49,22.53,29.24,23.83z"/>
		<path class="st3" d="M19.92,28.14c-0.56,1.01-0.75,2.33-1.21,3.38c1.83,0.6,4.51,1.02,6.2,0.08c-0.67-0.63-0.7-2.01-0.97-2.9
			c0.67,0.09,1.28-0.1,1.59-0.71c1.4-2.78-0.39-3.99-3.28-4.2c-1.73-0.13-4.09,0.7-3.7,2.66C18.85,27.94,19.08,27.17,19.92,28.14z"
			/>
		<path class="st3" d="M12.03,36.03c0.03,0,0.05,0,0.08,0"/>
		<path class="st3" d="M49.4,12.49c-5.64-1.31-11.53-2.62-17.16-1.26c-0.53,0.13-1.07,0.28-1.54,0.56c-0.58,0.34-1.03,0.85-1.42,1.4
			c-0.82,1.18-1.34,2.57-1.49,4"/>
		<path class="st3" d="M47.54,16.8c0.55,0.44,0.93,1.1,0.98,1.81c0.05,0.7-0.25,1.44-0.82,1.85c-0.21,0.15-0.46,0.28-0.57,0.51"/>
		<path class="st3" d="M38.12,32.37c0.89-0.61,1.86-1.1,2.87-1.46c0.09-0.03,0.19-0.07,0.25-0.15c0.05-0.06,0.07-0.14,0.08-0.22
			c0.06-0.3,0.12-0.61,0.18-0.91"/>
	</g>
</g>
<g id="sprit" class="st1">
	<g class="st2">
		<g>
			<path class="st3" d="M25.12,5.46c-1.62,0.74-3.47,0.93-5.21,0.56c0.05,0.39-0.34,0.62-0.29,1.01V26.4
				c-0.6-0.11-1.67,0.24-2.22,0.51c-1.21,0.59-1.98,1.85-2.3,3.16c-0.32,1.31-0.29,2.68-0.21,4.02v20.11
				c3.62,0.96,8.6,1.73,12.27-0.3l0.3,0.02l0.37-3.19c0.28-5.58,0.06-10.65,0.33-16.24c0.08-1.6,0.15-3.25-0.38-4.76
				c-0.53-1.51-1.23-3.01-2.84-3.01c0-4,0-8,0-12c0-2.14-0.11-4.31,0-6.44c0.03-0.55,0.22-1.24,0.21-1.74
				c-0.07-2.03-1.98-1.7-3.16-1.7c-0.98,0-1.18,0.8-2.07,1.21"/>
		</g>
		<path class="st3" d="M27.3,28.32c0.47-2.96,2.96-5.6,5.92-6.06V11.46c0-0.2,0-0.39,0-0.59c1.71,0.35,4.31,0.35,6.01-0.64
			c-0.05,0.2-0.04,0.59-0.09,0.79v10.8c1.87,0,3.64,0.92,5.04,2.16c1.4,1.24,2.29,3.06,2.35,4.93v18.04
			c0.13-0.1,0.18,0.18,0.08,0.32c-1.04,1.47-3.01,1.88-4.79,2.18c-4.64,0.77-9.63,1.49-13.84-0.58"/>
		<path class="st3" d="M33.5,9.96c1.49-0.94,3.43-1.14,5.08-0.52"/>
		<path class="st3" d="M34.57,43.89c1.48-1.89,2.98-3.77,4.48-5.64c0.49-0.61,0.98-1.22,1.51-1.79c0.03-0.03,0.07-0.07,0.11-0.05
			c0.04,0.02,0,0.1-0.03,0.07"/>
		<path class="st3" d="M34.33,37.5c-0.04-0.11-0.17-0.18-0.29-0.14c-0.11,0.04-0.18,0.17-0.14,0.29c0.14,0,0.28-0.03,0.4-0.09
			c0.01-0.07-0.01-0.14-0.07-0.19"/>
		<path class="st3" d="M40.51,43.65c-0.14-0.06-0.33-0.02-0.43,0.1c-0.1,0.12-0.12,0.31-0.03,0.44c0.18,0,0.35,0.01,0.53,0.01
			c0.07-0.18-0.02-0.41-0.19-0.5"/>
	</g>
</g>
<g id="Eis" class="st1">
	<path class="st4" d="M29.35,26.25c-1.06-0.29-2.1-1.01-3.17-1.36c-1.74-0.57-3.64-0.14-5.42,0.28c0.33,3.96,1.44,7.81,2.62,11.61
		c0.96,3.07,1.97,6.13,3.03,9.17c0.53,1.52,1.08,3.03,1.63,4.54c0.4,1.09,0.84,3.61,1.68,4.4c2.11,2,2.98-3.62,3.3-4.69
		c0.89-3.02,1.88-6.01,2.96-8.96c1.18-3.22,2.47-6.4,3.88-9.54c1.28-2.85,2.93-4.62,3.08-7.74c-0.71,1.84-1.85,0.79-2.99,1.2
		c-0.38,0.14-0.8,0.14-1.18,0.29c-0.97,0.38-1.32,1.58-1.32,2.63c0,1.04,0.22,2.12-0.11,3.11c-0.17,0.5-0.71,1.65-1.98,1.78
		c-0.97,0.09-1.76-0.95-1.89-1.91c-0.13-0.96,0.19-1.93,0.19-2.9c0-0.97-0.53-2.1-1.5-2.19c-1.4-0.14-1.56,1.22-2.69-0.23
		c-0.94-1.21-1.21-3.91-1.31-5.38c-0.12-1.86,0.22-3.8,1.3-5.32c1.13-1.6,2.96-2.6,4.87-3.02s3.17-0.43,5.11-0.15
		c1.41,0.21,3.02,0.73,4.05,1.72c0.61,0.59,1.69,1.51,1.99,3.41c0.58,3.67,0.18,5.89-3.84,7.64"/>
	<path class="st4" d="M28.59,17.03c-1.08-1.69-3.66-2.87-6.35-2.9c-1.37-0.01-2.8,0.27-3.78,0.93c-0.63,0.42-1.05,0.96-1.36,1.52
		c-1.5,2.67-0.46,6.04,2.88,7.75"/>
	<path class="st4" d="M22.29,13.9c-1.3-2.13-1-5.12,0.7-6.95c1.7-1.83,4.65-2.35,6.88-1.21c1.99,1.02,3.24,3.15,3.62,5.35"/>
	<path class="st4" d="M23.15,35.06c1.35-0.48,2.63-1.16,3.78-2c0.52-0.37,1.01-0.78,1.47-1.22"/>
	<path class="st4" d="M24.59,39.89c1.29-0.46,2.49-1.2,3.5-2.13"/>
</g>
<g id="Schmuck" class="st1">
	<g class="st2">
		
			<ellipse transform="matrix(0.7262 -0.6874 0.6874 0.7262 -12.9432 20.8843)" class="st3" cx="19.75" cy="26.69" rx="14.1" ry="14.37"/>
		<path class="st3" d="M23.57,36.9c-0.3,1.8-0.39,3.65-0.06,5.45c0.32,1.74,1.02,3.4,2,4.87c4,6.02,12.74,8.13,19.24,4.97
			c6.5-3.16,10.23-10.98,9.01-18.11C50.48,14.76,26.3,20.57,23.57,36.9z"/>
		<path class="st3" d="M15.65,12.29c-0.62-1.22-1.23-2.44-1.85-3.66c-0.27-0.53-0.5-1.27-0.05-1.64c0.18-0.14,0.42-0.18,0.64-0.22
			c2.19-0.35,4.35-0.85,6.47-1.48c0.43,0.38,0.85,0.75,1.28,1.13c-0.97,1.69-1.59,3.59-1.81,5.54"/>
		<path class="st3" d="M41.04,21.74c-0.17-0.98-0.53-1.94-1.05-2.79"/>
		<path class="st3" d="M38.73,15.97c-0.42-0.52-0.64-1.18-0.62-1.85"/>
		<path class="st3" d="M37.34,10.98c-0.13-0.55-0.17-1.12-0.14-1.69"/>
		<path class="st3" d="M36.59,4.94c0.05-0.32,0.1-0.64,0.15-0.96"/>
		<path class="st3" d="M44.45,21.52c0.85-0.14,1.65-0.53,2.29-1.11"/>
		<path class="st3" d="M49.29,18.38c0.57-0.16,1.06-0.58,1.29-1.13"/>
		<path class="st3" d="M52.67,14.85c0.73-0.46,1.35-1.08,1.81-1.81"/>
	</g>
</g>
<g id="Mode" class="st1">
	<path class="st4" d="M9.62,18.88c0.31-1.58,1.14-3.06,2.34-4.14c-0.6,5.95-1.21,11.9-1.81,17.86c4.96-0.24,9.91-0.77,14.81-1.57
		c-0.57-5.9-1.13-11.8-1.7-17.7c1.14,0.99,2.03,2.27,2.55,3.69c0.81-1.74,2.37-3.11,4.2-3.67c-2.45-2.14-4.4-4.83-5.67-7.82
		c-3.35,1.58-7.19,2.11-10.84,1.49c-0.3-0.05-0.61-0.11-0.9-0.02c-0.27,0.08-0.49,0.28-0.69,0.47c-1.64,1.5-5.67,3.96-6.4,6.06
		c-0.4,1.16,0.25,1.9,1.02,2.71C6.86,16.6,9.69,18.53,9.62,18.88z"/>
	<g class="st2">
		<path class="st3" d="M50.87,15.37c-3.32-0.5-6.96-0.64-10.19-1.53c-1-0.28-1.78-0.4-2.21-1.43c-0.21-0.5,0.4-3.72,0.25-3.77
			c5.12,1.57,10.46,2.38,15.81,2.42c-0.56,14-2.02,27.82-4.93,41.53c-1.57-0.03-3.15-0.07-4.72-0.1c0.34-9.31-1.65-17.73-1.3-27.04
			c-1.78,8.5-3.56,17.01-5.35,25.51c-2.16-0.39-4.32-0.78-6.48-1.17c2.24-12.02,4.86-24.16,6.41-36.32"/>
	</g>
	<g class="st2">
		<path class="st3" d="M15.3,40.1c0.26-0.25,0.53-0.51,0.85-0.64c0.29-0.12,0.64-0.32,0.91-0.16c1.9,1.16,4.44,0.55,5.44-2.02
			c1,1.93,1.74,4.05,2.19,6.24c0.08,0.37,0.15,0.75,0.11,1.13c-0.04,0.43-0.21,0.83-0.41,1.2c-0.68,1.21-1.74,2.04-2.8,2.78
			c-3.86,2.7-8.06,4.72-12.43,5.97c-0.7,0.2-1.46,0.38-2.13,0.07c-0.51-0.23-0.91-0.71-1.21-1.25c-0.68-1.23-0.87-2.8-0.52-4.2
			c0.58-2.29,2.36-3.23,3.99-4.32C11.4,43.51,13.41,41.9,15.3,40.1z"/>
		<path class="st3" d="M9.27,46.51c0.47,0.42,0.88,0.91,1.2,1.45"/>
		<path class="st3" d="M11.63,44.23c0.85,0.21,1.62,0.96,2.05,1.99"/>
		<path class="st3" d="M14.69,42.8c0.52,0.57,1.46,0.72,2,1.27"/>
	</g>
</g>
<g id="Hut" class="st1">
	<g class="st2">
		<path class="st3" d="M42.49,27.56c2.94,0.54,5.81,1.4,8.56,2.57c2.29,0.97,5.67,3.41,4.51,6.33c-0.3,0.76-0.86,1.4-1.47,1.94
			c-2.4,2.11-5.87,3.21-8.87,4.17c-3.69,1.19-7.68,1.61-11.54,1.68c-8.36,0.14-17.63-0.44-25.22-4.23c-1.73-0.86-3.61-2-4.1-4.01
			c-1.34-5.51,6.78-8.07,10.82-8.38c0.94-0.07,2.08,0.35,2.41-0.77c0.57-1.95,1.8-3.58,2.75-5.35c1.03-1.91,1.45-4.02,2.18-6.05
			c0.34-0.96,1.07-2.03,2.08-1.91c0.36,0.04,0.69,0.24,1.01,0.42c3.45,1.87,7.1,0.88,10.36-0.85c0.9-0.48,2.03-0.24,2.53,0.67
			c0.24,0.44,0.33,0.93,0.42,1.42c0.66,3.68,0.82,7.96,2.68,11.25"/>
		<path class="st3" d="M16.16,28.12c2.4,1.52,5.32,1.94,8.14,2.21c6.08,0.58,12.41,0.61,18.06-1.71"/>
		<path class="st3" d="M15.78,32.42c3.77,1.67,7.95,2.11,12.06,2.47c4.36,0.39,8.99,0.66,12.87-1.35"/>
	</g>
</g>
<g id="Taschen" class="st1">
	<path class="st4" d="M10.49,55.11c14.9-2.84,29.76-5.82,44.6-8.95c-2.73-9.05-4.18-18.03-4.56-27.48
		C36.37,21.58,22.17,24,8.01,26.9C9.4,36.28,11.16,45.65,10.49,55.11z"/>
	<path class="st4" d="M8.55,26.42c1.33-1.05,2.77-1.98,4.27-2.78c-0.48-1.06-0.37-2.12-0.85-3.18c1.71,0.48,3.47,0.81,5.24,0.97
		c3.55,0.32,7.13-0.01,10.66-0.49c7.19-0.97,14.64-2.69,20.07-7.43c-0.93,1.31-1.65,2.77-2.35,4.22c1.65,0.36,3.31,0.68,4.98,0.97"
		/>
	<path class="st4" d="M22.9,21.51c-0.23-3.76-0.88-5.54-0.5-8.28c0.41-2.98,0.98-6.3,5.67-7.16c6.03-1.09,7.78,2.68,8.36,6.13
		c0.42,2.47,0.52,4.98,0.28,7.47"/>
</g>
<g id="Rucksack" class="st1">
	<g class="st2">
		<path class="st3" d="M46.52,52.71c0.31-0.02,0.65-0.06,0.86-0.24c0.17-0.15,0.2-0.37,0.23-0.58c0.85-7.06,0.09-14.18-0.68-21.25
			c-0.27-2.52-0.54-5.03-0.82-7.55c-0.1-0.92-0.2-1.86-0.6-2.73c-0.68-1.49-2.18-2.65-3.79-3.59c-6.33-3.68-14.4-4.49-21.37-2.36
			c-3.34,1.02-5.39,2.89-6.43,6.22c-1.24,3.96-1.32,8.08-1.4,12.16c-0.06,3.42-0.13,6.83-0.19,10.25c-0.06,3.2-0.6,6.66-0.15,9.83
			c0.45,3.13,4.34,1.96,7.31,1.75c4.3-0.3,8.6-0.61,12.89-0.91C37.05,53.39,41.86,52.71,46.52,52.71z"/>
		<path class="st3" d="M16.59,15.53c-0.69-1.47-1.73-2.77-2.35-4.28s-0.72-3.4,0.34-4.63c0.68-0.78,1.7-1.16,2.69-1.45
			c0.48-0.15,1.01-0.28,1.49-0.11c0.3,0.11,0.55,0.33,0.76,0.57c0.8,0.91,1.14,2.13,1.4,3.31c0.27,1.23,0.48,2.47,0.63,3.71"/>
		<path class="st3" d="M38.74,14.74c0.64-2.37,1.56-4.66,2.74-6.82c0.24-0.45,0.52-0.91,0.97-1.15c0.58-0.31,1.3-0.17,1.91,0.07
			c0.87,0.34,1.68,0.87,2.34,1.54c0.32,0.32,0.62,0.71,0.69,1.16c0.07,0.45-0.1,0.89-0.26,1.31c-0.76,1.91-1.58,3.8-2.46,5.65"/>
		<path class="st3" d="M26.4,12.35c0.12-0.65,0.25-1.32,0.9-1.98c0.65-0.66,1.97-1.31,3.37-1.45c1.3-0.13,2.29,0.51,2.65,1.02
			c0.36,0.51,1.53,1.87,0.88,2.67"/>
		<path class="st3" d="M41.45,33.45c0.03,4.84,0.54,9.67,1.52,14.41c-7.98,1.11-16,1.93-24.04,2.47c-0.24-4.73-0.47-9.45-0.71-14.18
			c-0.01-0.3-0.02-0.63,0.19-0.85c0.17-0.18,0.42-0.23,0.67-0.27c3.47-0.58,6.79-1.18,10.32-1.4C30.4,33.58,41.45,33.19,41.45,33.45
			z"/>
		<path class="st3" d="M19.04,39.97c7.1-0.4,14.19-0.91,21.28-1.54"/>
		<path class="st3" d="M34.74,38.88c-0.1,1.11-0.09,2.22,0.04,3.33"/>
	</g>
</g>
<g id="Taschen_und_Rucksäcke" class="st1">
	<g class="st2">
		<path class="st3" d="M4.89,38.92c10.7-2.04,21.38-4.18,32.04-6.43c-1.96-6.5-3-12.95-3.27-19.74c-10.18,2.08-20.38,3.82-30.55,5.9
			C4.11,25.39,5.37,32.12,4.89,38.92z"/>
		<path class="st3" d="M3.49,18.31c0.96-0.76,1.99-1.43,3.07-1.99c-0.35-0.76-0.26-1.52-0.61-2.28c1.23,0.35,2.49,0.58,3.77,0.69
			c2.55,0.23,5.12-0.01,7.66-0.35c5.16-0.7,10.52-1.93,14.42-5.34c-0.67,0.94-1.19,1.99-1.69,3.03c1.19,0.26,2.38,0.49,3.58,0.7"/>
		<path class="st3" d="M13.81,14.78c-0.17-2.7-0.63-3.98-0.36-5.95c0.3-2.14,0.7-4.53,4.07-5.14c4.33-0.79,5.59,1.93,6.01,4.41
			c0.3,1.78,0.37,3.58,0.2,5.36"/>
	</g>
	<g class="st2">
		<g>
			<path class="st0" d="M33.24,21.39c0.69,0.52,0.1-0.03,0-0.08c0.08,0.09,0.15,0.19,0.23,0.28c-0.05-0.08-0.1-0.16-0.14-0.24
				c-0.04-0.08-0.09-0.16-0.12-0.25c0.05,0.11,0.1,0.22,0.15,0.34c-0.1-0.11-0.11-0.4-0.15-0.54c-0.12-0.45,0.01,0.65,0.01,0.08
				c0-0.2-0.01-0.4,0-0.61c0-0.09,0.01-0.17,0.02-0.26c0.03-0.28,0.02-0.23-0.02,0.15c0.06-0.13,0.07-0.37,0.1-0.52
				c0.08-0.37,0.17-0.74,0.27-1.11c0.04-0.14,0.08-0.28,0.13-0.42c0.03-0.08,0.25-0.68,0.08-0.25c-0.16,0.42,0.08-0.14,0.13-0.22
				c0.07-0.12,0.17-0.24,0.24-0.36c-0.32,0.56-0.15,0.21,0.02,0.04c0.42-0.39-0.44,0.26-0.05,0.03c0.11-0.06,0.22-0.14,0.33-0.2
				c0.58-0.3-0.41,0.11,0,0c0.26-0.07,0.51-0.14,0.77-0.2c0.43-0.1-0.68,0.06,0,0c0.14-0.01,0.27-0.02,0.41-0.02
				c0.32-0.01,0.64,0,0.96,0.02c0.14,0.01,0.27,0.03,0.4,0.04c0.5,0.04-0.59-0.11-0.16-0.02c0.29,0.06,0.57,0.12,0.85,0.21
				c0.43,0.13-0.56-0.32-0.08-0.04c0.05,0.03,0.11,0.06,0.16,0.09c0.21,0.14,0.14,0.08-0.22-0.19c0.05,0.06,0.18,0.19,0.25,0.24
				c-0.26-0.36-0.33-0.44-0.2-0.22c-0.16-0.43-0.2-0.52-0.12-0.27c0.39,1.25,1.76,2.17,3.08,1.75c1.25-0.41,2.17-1.74,1.75-3.08
				c-1.08-3.45-5.5-3.92-8.54-3.3c-1.67,0.34-3.13,1.34-4.05,2.77c-0.93,1.43-1.3,3.33-1.47,4.99c-0.1,0.92-0.01,1.94,0.31,2.82
				c0.18,0.48,0.38,0.97,0.68,1.39c0.44,0.62,0.88,1.02,1.48,1.48c0.48,0.37,1.37,0.4,1.93,0.25c0.58-0.16,1.21-0.61,1.49-1.15
				c0.31-0.58,0.46-1.28,0.25-1.93C34.18,22.22,33.79,21.8,33.24,21.39L33.24,21.39z"/>
		</g>
	</g>
	<g class="st2">
		<g>
			<path class="st0" d="M24.23,29.1c-0.74,3.11-1.68,6.17-2.82,9.16c-0.22,0.57-0.05,1.42,0.25,1.93c0.3,0.52,0.9,1.01,1.49,1.15
				c1.43,0.33,2.57-0.44,3.08-1.75c1.14-2.99,2.08-6.05,2.82-9.16c0.3-1.27-0.4-2.77-1.75-3.08C26.03,27.06,24.56,27.74,24.23,29.1
				L24.23,29.1z"/>
		</g>
	</g>
	<g class="st2">
		<path class="st5" d="M53.38,33.29c-0.16-1.24-0.99-2.42-1.95-3.46c-3.78-4.09-9.47-6.49-15.02-6.5c-2.66,0-4.56,0.9-6.07,3.09
			c-1.79,2.6-2.77,5.58-3.74,8.53c-0.81,2.47-1.62,4.94-2.43,7.41c-0.76,2.31-1.93,4.71-2.31,7.12c-0.37,2.38,2.72,2.4,4.93,2.91
			c3.19,0.74,6.39,1.48,9.58,2.22c3.45,0.8,7.11,1.39,10.5,2.43c0.23,0.05,0.49,0.11,0.68,0.02c0.16-0.07,0.23-0.23,0.29-0.37
			c2.2-4.95,3.23-10.29,4.26-15.61c0.37-1.89,0.73-3.78,1.1-5.67C53.34,34.72,53.47,34.01,53.38,33.29z"/>
		<path class="st5" d="M33.41,23.3c-0.17-1.23-0.64-2.4-0.75-3.64c-0.11-1.23,0.23-2.63,1.28-3.29c0.67-0.42,1.49-0.46,2.28-0.46
			c0.38,0,0.8,0.02,1.1,0.25c0.19,0.15,0.33,0.36,0.43,0.58c0.38,0.84,0.35,1.8,0.28,2.72c-0.08,0.95-0.2,1.9-0.37,2.84"/>
		<path class="st5" d="M49.7,27.68c0.99-1.58,2.18-3.04,3.51-4.35c0.28-0.27,0.58-0.54,0.96-0.62c0.49-0.1,0.98,0.17,1.37,0.48
			c0.56,0.44,1.02,1.01,1.36,1.64c0.16,0.31,0.29,0.65,0.24,1c-0.05,0.34-0.27,0.63-0.49,0.89c-0.98,1.22-2,2.41-3.05,3.56"/>
		<path class="st5" d="M41.26,23.18c0.23-0.45,0.48-0.9,1.1-1.24c0.62-0.33,1.73-0.51,2.78-0.3c0.97,0.19,1.55,0.88,1.7,1.34
			c0.15,0.45,0.69,1.7,0.04,2.14"/>
		<path class="st5" d="M47.49,41.9c-1.06,3.53-1.77,7.16-2.11,10.82c-6.05-0.98-12.07-2.18-18.03-3.58
			c0.89-3.49,1.77-6.98,2.66-10.47c0.06-0.22,0.13-0.46,0.32-0.58c0.16-0.09,0.36-0.07,0.54-0.05c2.65,0.36,5.21,0.66,7.81,1.29
			C39.42,39.52,47.54,41.71,47.49,41.9z"/>
		<path class="st5" d="M29.73,41.63c5.25,1.3,10.53,2.51,15.82,3.64"/>
		<path class="st5" d="M41.4,44.35c-0.32,0.78-0.56,1.6-0.72,2.43"/>
	</g>
</g>
<g id="Möbel" class="st1">
	<g class="st2">
		<path class="st3" d="M12.37,50.54c11.04-0.74,22.1-1.17,33.17-1.3"/>
		<path class="st3" d="M20.17,51.87c-0.7,1.61-1.41,3.22-2.11,4.83"/>
		<path class="st3" d="M37.21,50.28c0.95,1.77,1.69,3.64,2.2,5.58"/>
		<path class="st3" d="M12.37,50.64c-0.1-0.1-0.13-0.26-0.08-0.38V30.51c0.42-0.42,0.84-0.71,1.44-0.77
			c11.28-1.01,22.56-1.89,33.86-2.65c0.24,2.03,0.15,4.05,0.07,6.09c-0.14,3.65-0.28,7.3-0.42,10.94c-0.05,1.23-0.1,2.45-0.14,3.68
			c-0.02,0.4-0.04,0.83-0.28,1.15s-0.79,0.44-1.04,0.12"/>
		<path class="st3" d="M18.8,28.09c3.67-0.27,7.33-0.54,11-0.81"/>
		<path class="st3" d="M24.84,26.69c0.06-3.69,0.22-7.37,0.47-11.05c-0.06,0.11-0.12,0.23-0.18,0.34"/>
		<path class="st3" d="M18.06,39.24c7.81-0.31,15.61-0.94,23.37-1.89"/>
		<path class="st3" d="M29.89,33.68c-0.12,0.01-0.23,0.08-0.28,0.18"/>
		<path class="st3" d="M29.75,44.06c-0.18-0.02-0.34,0.19-0.27,0.36"/>
		<path class="st3" d="M16.93,17.16c5.44,0.11,10.89-0.08,16.3-0.58c-1.87-4.29-3.13-8.5-3.61-13.27c-3,0.14-6.04,0.09-9.04,0.12
			C19.91,4.72,17.35,13.99,16.93,17.16z"/>
		<path class="st3" d="M30.26,17.84c0,0.23,0,0.47,0,0.7"/>
	</g>
</g>
<g id="Schreibwaren" class="st1">
	<g class="st2">
		<g>
			<path class="st3" d="M15.94,52.46l26.42-24.25c3.7-3.39,7.32-6.78,10.63-10.47c0.05-1.66-0.23-3.17-1.15-4.13
				s-2.21-1.05-4.23-0.42l-35.73,32.8c-0.93,1.11-1.39,2.28-1.83,3.4c-0.56,1.45-1.13,2.9-1.69,4.35
				C10.63,53.5,13.46,53.18,15.94,52.46z"/>
			<path class="st3" d="M10.26,48.28c0.6,0.9,1.2,1.81,1.8,2.71"/>
			<path class="st3" d="M21.06,42.52c0.9-0.83,1.8-1.65,2.7-2.48l23.02-21.14"/>
		</g>
		<g>
			<path class="st3" d="M16.26,32.5c-3.94,3.39-8.05,6.59-12.31,9.6c0.11-0.82,0.25-1.86,0.68-2.5c0.86-1.28,1.82-2.49,2.77-3.69
				c1.65-2.07,3.29-4.14,4.94-6.21c7.15-8.98,16.42-15.97,24.86-23.67c1.69,0.81,3.2,2.29,4,4.02c-2.93,3.61-6.72,6.27-10.39,9.1
				C25.73,23.06,21.11,28.33,16.26,32.5z"/>
			<path class="st3" d="M40.48,6.66c0.44-0.36,0.85-0.75,1.23-1.18"/>
			<path class="st3" d="M13.87,30.33c0.19,0.31,0.43,0.61,0.7,0.85"/>
			<path class="st3" d="M20.25,17.32c3.16-3.03,6.45-5.92,9.88-8.65l0.45-0.41c0.25,0.21,0.87,0.23,1,0.54"/>
		</g>
		<path class="st3" d="M52.16,51.94c-6.36-0.9-12.79,0.65-19.21,0.64c-1.51-1.55-3.3-2.76-4.99-4.12
			c6.26-4.78,12.11-10.21,18.36-14.98c1.66,0.63,3.07,1.22,4.45,2.33c1.85,1.48,1.47,3.56,2.22,5.8
			c-4.76,3.12-7.08,6.54-14.15,10.66"/>
		<path class="st3" d="M38.68,41.42c1.46,1.73,2.87,3.5,4.24,5.31"/>
		<path class="st3" d="M40.95,39.66c0.33,1.26,0.88,2.47,1.65,3.61c0.48-1.59,0.96-3.18,1.43-4.77c0.09,1.81,1.13,4.1,1.22,5.91
			c1.31-2.32-0.26-5.53,0.87-7.91c0.82,2.17,0.08,4.58,1.08,6.71c1.19-1.48,0.42-4.53,1.79-5.91c0.31,1.15,0.46,3.25,0.66,4.41
			c0.28-0.8,1.04-1.96,1.33-2.76"/>
	</g>
</g>
<g id="interior" class="st1">
	<g class="st2">
		<path class="st3" d="M37.5,55.69H24.47c-0.03,0-0.07,0-0.1,0c-1.06-0.54-2.6-1.45-2.89-2.6c-0.3-1.18,0.44-2.35,1.06-3.4
			c1.29-2.18,2.2-4.68,1.98-7.2c-0.28-3.26-2.37-6.06-4.57-8.49c-0.81-0.9-1.66-1.79-2.26-2.85c-0.6-1.06-0.87-2.3-0.57-3.47h26.45
			c0.02-0.27,1.66,1.6,1.48,3.03c-0.17,1.43-0.85,2.74-1.52,4.02c-0.65,1.25-1.31,2.51-1.96,3.76c-1.08,2.08-2.2,4.37-1.74,6.67
			c0.45,2.24,2.35,4.13,2.21,6.41C41.91,53.86,39.79,55.69,37.5,55.69z"/>
		<path class="st3" d="M14.96,5.84c2.84,4.23,5.29,8.87,7.3,13.81c1.49,3.67,2.73,7.49,3.97,11.31"/>
		<path class="st3" d="M34.06,7.99c-1.89,12.78-3.25,25.64-4.08,38.54"/>
		<path class="st3" d="M42.55,6.54c-2.21,8.84-4.42,17.68-6.62,26.51"/>
		<path class="st3" d="M18,9.9c-1.46,0.38-2.92,0.76-4.38,1.14"/>
		<path class="st3" d="M41.58,14.62c1.6-0.15,3.2-0.3,4.79-0.44"/>
		<path class="st3" d="M32.4,12.24c-0.93-0.57-1.85-1.14-2.78-1.72"/>
		<path class="st3" d="M20.81,12.8c0.14-0.62,0.6-1.11,0.98-1.62c0.82-1.08,1.36-2.37,1.56-3.71"/>
		<path class="st3" d="M39.11,20.35c-0.6-0.5-1.19-1-1.79-1.5"/>
		<path class="st3" d="M39.62,10.85c-0.36-1.21-0.61-2.46-0.76-3.71"/>
		<path class="st3" d="M32.11,20.61c0.55-0.59,1.1-1.19,1.64-1.78"/>
		<path class="st3" d="M30.96,22.46c-0.95-0.89-1.82-1.86-2.59-2.9"/>
		<path class="st3" d="M33.88,7.61c-0.47-1.02-0.65-2.18-0.51-3.3"/>
		<path class="st3" d="M23.51,20.73c-0.79-0.53-1.58-1.06-2.37-1.59"/>
		<path class="st3" d="M39.09,24.43c0.71-0.62,1.45-1.2,2.23-1.73"/>
	</g>
</g>
<g id="Spiel" class="st1">
	<path class="st4" d="M27.67,52.81c-5.14,1.33-18.81,2.47-24.1,2.87c0.74-7.2,6.35-18.96,7.09-26.15
		c-5.45-2.19-5.75-12.48,1.82-13.35c6.31-0.73,11.48,8.41,4.59,12.83C17.73,36.35,26.18,45.58,27.67,52.81z"/>
	<path class="st4" d="M25.62,22.48c1.03-3.95,4.61-10.57,6.25-14.51c7,1.17,11.96,1.44,18.44,2.78C47.96,15.49,46.17,20.92,44.7,26
		C38.54,24.62,31.84,23.55,25.62,22.48c0.92,2.99,1.82,9.86,2.26,12.96"/>
	<path class="st4" d="M44.51,25.89c0.31,2.6,3.23,11.25,4.2,13.68"/>
	<path class="st4" d="M27.89,35.43c6.69,2.66,13.25,3.53,20.82,4.13"/>
	<path class="st4" d="M50.31,10.75c1.86,5.12,4.39,11.13,4.64,11.52"/>
	<path class="st4" d="M54.93,22.1c-1.43,6.09-3.29,13.26-6.22,17.47"/>
	<path class="st4" d="M37.81,15.95c-0.3-0.04-0.6,0.25-0.54,0.54c0.06,0.29,0.48,0.44,0.69,0.23s0.02-0.66-0.28-0.63"/>
	<path class="st4" d="M31.18,27.85c-0.21,0.24-0.25,0.61-0.1,0.89c0.15,0.28,0.48,0.46,0.79,0.42c0.03-0.29-0.02-0.58-0.14-0.84
		c-0.19-0.01-0.39-0.01-0.58-0.02"/>
	<path class="st4" d="M35.65,31.52c-0.21,0-0.31,0.27-0.27,0.47c0.04,0.24,0.23,0.47,0.48,0.51c0.25,0.04,0.51-0.17,0.49-0.42
		c-0.02-0.25-0.38-0.4-0.55-0.21"/>
	<path class="st4" d="M39.94,34.21c-0.25,0.4,0.02,1.01,0.48,1.11c0.19-0.36-0.16-0.86-0.56-0.82"/>
	<path class="st4" d="M49.49,24.87c0.08-0.28,0.26-0.53,0.3-0.42c0.04,0.11-0.08,0.52-0.2,0.69C49.47,25.3,49.41,25.14,49.49,24.87"
		/>
	<path class="st4" d="M34.19,12.37c0.11-0.07,0.29,0.01,0.3,0.15c0.01,0.13-0.15,0.25-0.27,0.2c-0.13-0.05-0.15-0.25-0.05-0.33"/>
	<path class="st4" d="M40.44,20.79c-0.09,0.04-0.15,0.13-0.15,0.23c0.02,0.06,0.09,0.1,0.15,0.11c0.11-0.05,0.08-0.25-0.04-0.27"/>
	<path class="st4" d="M43.03,13.79c-0.1,0.04-0.22,0.12-0.18,0.22c0.02,0.07,0.14,0.09,0.18,0.03c0.04-0.06-0.01-0.16-0.08-0.17"/>
	<path class="st4" d="M32.2,18.33c-0.09,0.03-0.15,0.13-0.12,0.22c0.08,0.02,0.18,0.03,0.24-0.03c0.06-0.06-0.01-0.2-0.08-0.15"/>
</g>
<g id="Prints" class="st1">
	<g class="st2">
		<path class="st3" d="M40.12,47.51c-9.97,0.22-20.17,0.72-30.1,1.77c0.34-14.15-0.73-28.3-2.77-42.26
			c9.3-0.29,18.6-0.03,27.83,0.76C36.99,21.19,38.38,34.08,40.12,47.51z"/>
		<path class="st3" d="M36.33,13.54c5.48-0.15,10.96-0.06,16.43,0.28c-2.17,11.61-2.43,27.03-4.27,39.27
			c-8.34-0.33-16.97-0.08-25.3-0.42c0.16-1.45,0.31-2.91,0.47-4.36"/>
		<path class="st3" d="M9.77,35.45c3.73-4.71,7.38-9.47,10.96-14.29c5.37,8.11,10.18,16.56,14.46,25.3"/>
		<path class="st3" d="M27.86,31.72c1.05-1.02,2.11-2.05,3.16-3.07c1.63,2.22,3.34,4.37,5.14,6.45c0.54,0.62,1.11,1.25,1.86,1.57"/>
		<path class="st3" d="M27.12,13.11c-0.81-0.28-1.69,0.52-1.77,1.38c-0.08,0.86,0.42,1.66,1.02,2.28c0.46,0.48,1,0.89,1.64,1.06
			c0.64,0.17,1.38,0.04,1.83-0.44c0.23-0.24,0.37-0.56,0.45-0.89c0.25-1.01-0.07-2.15-0.82-2.87s-1.9-1.01-2.9-0.72"/>
	</g>
</g>
<g id="Rad" class="st1">
	<g class="st2">
		<path class="st3" d="M13.51,24.65c-6.28-0.12-9.98,3.49-10.59,9.74s4.19,12.55,10.37,13.64c1.48,0.26,3.03,0.25,4.44-0.27
			c2.3-0.84,3.97-2.97,4.72-5.3c0.75-2.33,0.68-4.85,0.31-7.27c-0.48-3.2-1.53-6.43-3.73-8.79s-7.56-1.99-10.58-0.84"/>
		<path class="st3" d="M40.09,45.73c5.32,3.43,11.45,1.55,14.78-3.61c1.79-2.78,2.66-6.2,2.1-9.46c-0.55-3.26-2.59-6.29-5.54-7.79
			c-2.95-1.5-6.75-1.29-9.37,0.72c-4.65,3.58-8.31,13.43-3.95,18.37c1.73,1.96,4.23,3.11,6.79,3.61"/>
		<path class="st3" d="M22.62,12.08C22.56,12.09,24.79,11.44,22.62,12.08c-5.17,1.52-3.59,1.67-7.93,1.27
			c2.98-0.15,2.77-0.44,5.75-0.59c2.26,8.01,4.98,15.9,7.06,23.98"/>
		<path class="st3" d="M23.02,21.21c5.66-0.63,11.25-1.94,16.66-3.88c1.34,6.77,4.79,13.07,7.51,19.41"/>
		<path class="st3" d="M23.88,24.23c-3.8,5.31-7.67,10.1-12.46,14.54c5.57-0.5,10.62-0.81,16.07-2.04
			c2.32-6.8,7.13-12.05,10.66-18.3"/>
		<path class="st3" d="M39.06,12.08c1.63,0.59,3.25,1.18,4.85,1.84c0.82,0.34,1.67,0.72,2.27,1.38c0.05,0.05,0.1,0.12,0.1,0.19
			c0,0.08-0.06,0.14-0.12,0.19c-0.53,0.45-1.39,0.69-1.47,1.38"/>
		<path class="st3" d="M39.64,17.46c0.08-0.35,0.41-0.58,0.72-0.78c0.68-0.44,1.36-0.87,2.03-1.31"/>
	</g>
</g>
<g id="yoga" class="st1">
	<g class="st2">
		<path class="st3" d="M27.9,13.58c-0.93,0.28-2,0.7-2.22,1.65c-0.06,0.27-0.04,0.55-0.01,0.83c0.15,1.42,0.56,2.81,1.2,4.09
			c0.15,0.3,0.32,0.61,0.6,0.81c0.73,0.51,1.76-0.02,2.33-0.71c0.82-1,1.21-2.37,0.91-3.63s-1.32-2.35-2.59-2.61
			c-0.27,0.18-1.17,1.75-1.23,2.07c0.55-0.06,1.1-0.19,1.63-0.37c-0.18,0.38-0.44,0.72-0.75,1c0.41-0.1,0.84-0.14,1.26-0.11
			c-0.26,0.54-0.64,1.01-1.11,1.38c0.4-0.1,0.82-0.12,1.22-0.08c-0.41,0.39-0.83,0.78-1.24,1.18c0.19-0.11,0.48,0.02,0.52,0.24"/>
		<path class="st3" d="M21.07,4.7c-2.03,1.68-2.54,4.57-2.6,7.21c-0.07,2.85,0.22,5.7,0.86,8.47c0.41,1.79,1.05,3.67,2.5,4.79
			c1.22,0.95,2.82,1.21,4.34,1.45c2.66,0.41,5.62,0.76,7.84-0.77c2.64-1.82,3.09-5.47,3.26-8.67c0.12-2.36,0.22-4.75-0.22-7.07
			c-0.44-2.32-1.47-4.61-3.28-6.13"/>
		<path class="st3" d="M23.51,26.07c-1.36,6.89-2.15,13.88-2.37,20.9c-3.55,0.51-7.07,1.21-10.55,2.09
			c-0.6,0.15-1.31,0.27-1.65,0.78c-3.39,4.98,1.66,6.06,2.22,6.12c4.85,0.52,14.8-2.31,19.65-1.79c8.23,0.88,16.81,1.95,18.19,1.7
			c1.83-0.33,1.83-0.33,2.88-2.35c0.46-0.9,0.56-3.73-0.31-4.25c-3.94-2.33-7.23-1.52-11.81-1.32c-0.64,0.03-1.32,0.05-1.87-0.27
			c-0.75-0.44-1.04-1.36-1.27-2.2c-1.64-6.13-3.3-12.38-2.96-18.71"/>
		<path class="st3" d="M18.52,10.96c-0.14,4.9-0.42,5.87-0.05,10.75c0.09,1.22,0.62,3.72,1.04,4.87c0.42,1.15,2.32,2.09,3.42,2.62"
			/>
		<path class="st3" d="M37.28,11.7c0.28,3.78,0.07,7.75,0.1,11.19c0.04,4.48-3.43,6.91-4.95,7.92"/>
	</g>
	<path class="st4" d="M23.91,29.34c1.79-0.54,3.62-0.97,5.46-1.31c-0.13,0.37-0.57,0.51-0.95,0.6c-2.29,0.53-2.88,0.67-5.17,1.2
		c3.35-0.61,5-0.82,8.35-1.43c-2.35,1.23-4.7,2.45-7.05,3.68c2.7-0.77,5.41-1.55,8.11-2.32c-3.45,1.09-6.89,2.19-10.34,3.28
		c3.16-0.5,6.32-1,9.48-1.5c-3.07,1.42-6.24,2.65-9.46,3.68c3.06-0.52,4.39-0.74,7.45-1.25c-2.66,0.9-3.59,1.5-6.25,2.4
		c3.03-0.65,6.11-1.07,9.2-1.25c-4.07,1.05-4.32,1.65-8.39,2.7c3.33-0.4,2.86-0.34,6.19-0.74c-2.67,0.94-5.4,1.69-8.16,2.25
		c3.7-0.6,6.33-0.97,10.06-1.35c-3.16,0.87-5.27,1.47-8.49,2.02c2.99-0.22,4.67-0.35,7.65-0.68c-3.04,0.79-4.78,1.44-7.82,2.24
		c2.69-0.22,0.52,0.77,3.21,0.56c-2.93,0.73-0.99,0.25-3.92,0.97c3.18-0.57,6.76-1.04,9.99-1.09c-3.16,0.88-6.68,1.92-9.84,2.81
		c4.15-0.16,8.31-0.33,12.46-0.49c-3.67,0.64-7.36,1.19-11.06,1.65c2.94-0.29-0.07,0.75,2.88,0.78c-3.62,1.19-1.35,0.95-5.1,1.6
		c4.89-0.21,9.78-0.43,14.67-0.64c-5.27,1.09-10.71,0.9-16.05,1.48c4.41-0.31,8.83-0.34,13.24-0.09
		c-6.72,1.24-11.14,0.63-17.95,1.19c5.92,0.01,9.34-0.04,15.25-0.03c-3.96,0.34-7.91,0.69-11.87,1.03
		c-1.28,0.11-2.58,0.23-3.79,0.68c3.55-0.54,7.16-0.78,10.75-0.7c-1.45,0.4-5.46-0.01-6.96,0.02c-4.25,0.09-5.99,0.59-10.24,0.6
		c3.62-0.08,5.84-0.86,9.42-0.3c-2.67,0.34-3.93,1.69-6.6,2.03c2.22,0.43,3.41-1.19,5.66-1.33c-3.11,0.28-5.15,2.09-8.26,1.9
		c8.18,0.03,16.37-1.27,24.14-3.83c-2.94,0.52-5.95,0.67-8.93,0.47c3.41-0.34,6.86-0.3,10.26,0.12c-2.77,0.42-5.55,0.75-8.34,1.01
		c5.12-0.45,10.24-0.91,15.36-1.36c-3.83,0.43-7.66,0.85-11.5,1.28c4.18-0.75,6.15-0.64,10.38-1.04c-2.25,0.69-1.07,0.63-3.23,1.57
		c3.09-0.52,5.04-0.82,8.14-1.28c0.98-0.15,1.99-0.29,2.96-0.06c-2.31,0.56-4.63,1.12-6.94,1.69c2.7-0.4,5.43-0.65,8.15-0.75
		c-2.78,0.7-3.74,0.95-6.51,1.65c2.09-0.16,2.36,0.07,4.44-0.22c-0.15,0.07-0.3,0.14-0.45,0.21c0.54-0.33,1.07-0.65,1.61-0.98
		c-0.06-0.24-0.13-0.48-0.19-0.72c-1.47-0.13-2.93-0.27-4.4-0.4c0.51-0.17,1-0.43,1.43-0.76c-1.14-0.06-3.92,0.37-5.01,0.06
		c-0.19-0.17,0.86-0.27,1.12-0.24"/>
</g>
<g id="musik" class="st1">
	<g class="st2">
		<path class="st3" d="M13.96,8.71c0.39,8.1,1.85,16.37,2.62,24.43c-0.53-2.1-2.73-2.01-5.34-1.46c-3.7,0.79-5.64,3.28-5.28,6.19
			C6.37,41,8.29,41.93,9.67,42c1.82,0.08,3.79-0.37,5.16-1.58c1.03-0.91,2.04-2.2,2.16-3.56s0.14-2.46-0.4-3.71"/>
		<path class="st3" d="M13.59,8.61c5.03-1.32,10.05-2.64,15.08-3.97"/>
		<path class="st3" d="M14.34,15.11c5.04-1.6,10.13-3.05,15.26-4.36"/>
		<path class="st3" d="M28.6,4.69c1.47,7.38,2.79,14.78,3.96,22.21c-2.63-0.9-5.76-0.66-7.89,1.12s-2.95,5.13-1.5,7.51
			c0.25,0.41,0.56,0.79,0.96,1.06c0.6,0.41,1.34,0.54,2.06,0.56c0.85,0.03,1.71-0.09,2.53-0.34c1.86-0.57,3.5-1.89,4.35-3.65
			c0.85-1.75,0.84-3.92-0.12-5.61"/>
	</g>
	<path class="st4" d="M44.76,46.53c-0.12,0.88-0.25,1.77-0.59,2.58c-0.66,1.56-2.11,2.72-3.73,3.21c-1.62,0.49-3.39,0.34-4.99-0.23
		c-0.94-0.33-1.85-0.82-2.48-1.59c-0.99-1.22-1.13-2.93-0.93-4.48c0.13-1.03,0.4-2.07,0.96-2.95c0.33-0.53,0.76-0.99,1.24-1.39
		c1.5-1.29,3.49-2.05,5.45-1.84s3.84,1.45,4.59,3.27c0.48,1.16,0.76,1.86,0.77,3.12l2.71-27.7c1.99,0.19,3.41,1.38,3.89,3.32
		s0.14,3.97-0.17,5.95s-0.59,4.03,0,5.94c0.56,1.82,1.92,3.38,3.65,4.17"/>
</g>
<g id="Reisen" class="st1">
	<g class="st2">
		<path class="st3" d="M10.82,51.35c4.14-11.73,8.24-27.09,12.03-38.94c1.75,11.99,3.92,23.72,6.85,35.48"/>
		<path class="st3" d="M18.91,28.93c0.53,1.22,1.36,2.31,2.39,3.16c0.75-1.59,2.91-4.3,3.8-5.82"/>
		<path class="st3" d="M27.52,32.22c2.18-4.97,3.46-11.12,5.64-16.09c2.35,9.91,5.6,20.99,7.95,30.9"/>
		<path class="st3" d="M37,31.04c-0.68,1.68-1.24,4.24-2.52,5.53c-0.11,0.11-2.02-0.9-2.17-0.87c-0.22,0.04-0.18,1.57-0.36,1.45
			c-1.73-1.24-1.74-3.25-3.08-4.91"/>
		<path class="st3" d="M44.73,36.68c-0.17,0.1-0.34,0.21-0.5,0.31c2.11-1.89,3.67-4.38,4.45-7.1c0.26,0.83,0.33,1.3,0.6,2.13
			c0.64,2.03,1.31,4.12,2.67,5.76"/>
		<path class="st3" d="M43.6,42.28c1.86-0.92,3.54-2.56,4.32-4.5c0.62-1.55,0.3-3.38,0.67-5.03c0.27,2.63,1.14,5.35,2.66,7.54"/>
		<path class="st3" d="M47.6,35.07c-0.58,0.67-0.88,1.54-1.24,2.36s-0.84,1.64-1.63,2.06"/>
		<path class="st3" d="M47.63,38.26c0.98,2.27,3.18,3.74,5.27,5.08"/>
		<path class="st3" d="M47.87,40.4c0.77,1.07,0.78,2.5,0.65,3.81s-0.36,2.67,0.03,3.92"/>
		<path class="st3" d="M6.58,53.09c16.1-4.95,31.54-4.43,48.02-4.96"/>
		<path class="st3" d="M5.41,9.33c0.24-0.56,0.6-1.07,1.06-1.47c0.23-0.2,0.51-0.39,0.82-0.42c0.64-0.06,1.13,0.53,1.5,1.05
			c0.11-0.81,0.83-1.5,1.65-1.58c0.82-0.07,1.65,0.48,1.9,1.26"/>
		<path class="st3" d="M8.07,14.82c0.32-0.56,0.77-1.08,1.38-1.28c0.61-0.2,1.39,0.03,1.64,0.63c0.03-0.67,0.58-1.29,1.24-1.39
			c0.66-0.11,1.38,0.31,1.61,0.94"/>
	</g>
</g>
<g id="Coaching" class="st1">
	<g class="st2">
		<path class="st3" d="M19.11,40.67c-0.84,1.15-1.78,2.22-2.72,3.29c-1.19,1.35-2.38,2.7-3.57,4.05c-0.37,0.42-0.71-0.34-0.92,0.18
			c1.27-2.95,2.04-6.1,2.28-9.3C11,38.31,8.1,37.06,6.47,34.13c-2.39-4.3-3.7-10.11-2.3-14.93c1.85-6.35,7.57-10.6,13.95-11.63
			c2.72-0.44,5.48-0.31,8.23-0.33c3.65-0.03,7.5,0.39,10.6,2.5c3.47,2.36,5.49,6.52,6.24,10.56c0.98,5.28-0.77,11-4.56,14.81
			C33.46,40.3,26.06,41.14,19.11,40.67"/>
		<path class="st3" d="M47.41,20.63c6.34-0.33,7.85,4.13,8.32,6.24c2.66,11.95-3.18,16.6-6.81,17.01c0.31,2.66,0.28,5.79,0.06,8.87
			c-2.53-1.39-5.3-5.92-7.83-7.31c-6.14,1.59-7.57,0.11-8.96-2.03"/>
		<path class="st3" d="M12.29,18.85c0.91-0.67,1.92-1.21,2.98-1.59c0.57-0.2,1.24-0.35,1.74-0.02c0.42,0.28,0.63,0.84,1.1,1.01
			c0.24,0.09,0.5,0.05,0.74-0.01c1.58-0.44,2.74-2.24,4.37-2.07c1.19,0.13,2.03,1.29,3.2,1.54c1.25,0.27,2.45-0.58,3.45-1.38"/>
		<path class="st3" d="M11.19,24.7c1.92-0.34,3.85-0.61,5.79-0.82c0.03,0.4,0.13,0.8,0.29,1.16c0.45-0.33,0.9-0.65,1.34-0.98
			c0.24-0.17,0.58-0.35,0.8-0.15"/>
		<path class="st3" d="M24.59,23.7c1.58-0.11,3.15-0.22,4.73-0.32c0.76-0.05,1.52-0.1,2.27-0.06c0.61,0.03,1.23,0.13,1.84,0.04
			c0.84-0.12,1.66-0.58,2.5-0.41"/>
		<path class="st3" d="M12.18,31.9c0.92-0.37,1.74-0.96,2.65-1.37c0.91-0.4,1.99-0.6,2.89-0.17c0.41,0.2,0.75,0.52,1.14,0.75
			c1.29,0.77,3.11,0.47,4.08-0.68c0.27-0.31,0.63-0.73,1-0.55c0.26,0.13,0.31,0.48,0.5,0.7c0.34,0.4,0.99,0.25,1.45,0.02
			c0.91-0.47,1.69-1.18,2.24-2.04"/>
		<path class="st3" d="M41.41,39.26C41.21,39.46,41.62,39.07,41.41,39.26"/>
		<path class="st3" d="M45.99,38.26C45.95,38.57,46.22,38.04,45.99,38.26"/>
		<path class="st3" d="M50.55,37.02C50.27,37.22,50.82,36.82,50.55,37.02"/>
	</g>
</g>
<g id="Auto" class="st1">
	<g class="st2">
		<g>
			<path class="st3" d="M11.73,39.22c0.06,1.03,0.6,2.02,1.45,2.6c0.72,0.49,1.61,0.67,2.48,0.79c0.69,0.09,1.42,0.15,2.05-0.16
				c0.72-0.36,1.13-1.13,1.37-1.89c0.34-1.12,0.38-2.37-0.08-3.44c-0.43-1-1.28-1.81-2.31-2.17C14.04,33.98,11.57,36.54,11.73,39.22
				z"/>
			<path class="st3" d="M40.69,41.22c0.97,0.96,2.41,1.4,3.8,1.33c0.49-0.02,1-0.11,1.42-0.35c0.83-0.46,1.25-1.39,1.43-2.29
				c0.46-2.37-1.08-6.56-4.32-5.52C40.19,35.31,38.43,39,40.69,41.22z"/>
			<path class="st3" d="M23.09,39.61c3.98,0.21,7.98,0.2,11.96-0.03"/>
			<path class="st3" d="M8.96,40.62c-1.55,0.1-3.1,0.01-4.63-0.25c-0.24-0.04-0.48-0.09-0.66-0.25c-0.32-0.28-0.31-0.77-0.27-1.2
				c0.21-2.28,0.41-4.56,0.62-6.85c0.07-0.81,0.15-1.64,0.52-2.37c0.86-1.7,2.96-2.29,4.85-2.53c1.89-0.24,3.95-0.36,5.38-1.61
				c1.95-1.71,2-4.94,4.02-6.56c1.14-0.91,2.67-1.11,4.11-1.25c3.92-0.37,8.01-0.63,11.94-0.29c1.69,0.15,1.95,0.9,2.97,2.15
				c1.29,1.57,2.62,3.1,3.93,4.65c0.43,0.5,0.86,1.01,1.38,1.41c2.1,1.59,5.08,1.05,7.64,1.68c1.99,0.49,3.77,1.76,4.89,3.47
				c0.63,0.96,1.07,2.11,0.94,3.25c-0.13,1.24-0.91,2.34-1.88,3.13c-1.29,1.05-2.98,1.99-4.43,2.84"/>
		</g>
		<path class="st3" d="M14.67,27.43c9.61,0.5,19.26,0.42,28.87-0.24"/>
		<path class="st3" d="M26.12,18.92c0.45,6.99,1.08,13.94,1.9,20.84"/>
	</g>
</g>
<g id="Geschenk">
	<g>
		<path class="st3" d="M48.12,26.94c-0.01,7.54,0.41,13.64,1.43,22.82c-12.1,1.03-24.2,2.06-36.3,3.08c-0.27-7.47-0.58-15-0.87-22.5
			L48.12,26.94z"/>
		<path class="st3" d="M50,26.77c-0.53-3.49,0.37-11.14,0.12-11.28c-0.17-0.1-0.38-0.08-0.58-0.06C36.83,16.62,24.11,17.81,11.39,19
			c-0.51,0.05-1.09,0.13-1.39,0.55c-0.17,0.25-0.16,0.57-0.24,0.86c-0.17,0.59-0.83,2.93,0.3,8.36c0.55,2.62,4.77,1.26,6.86,1.06
			c7.07-0.65,14.14-1.31,21.22-1.96C42.1,27.5,46.05,27.13,50,26.77z"/>
		<path class="st3" d="M29.59,16.57c0.91,11.45,1.4,22.93,1.49,34.41"/>
		<path class="st3" d="M20.4,24.56c4.14-0.86,7.67-4.18,8.79-8.25c0.24,1.8,1.73,3.46,3.29,4.38c0.58,0.34,1.22,0.59,1.85,0.82
			c0.99,0.36,1.99,0.69,3.02,0.85c1.34,0.2,2.71,0.12,4.06,0.02"/>
		<path class="st3" d="M24.04,15.82c-1.77-0.44-3.57-1.31-4.41-2.93s-0.21-4.03,1.55-4.49c1.28-0.34,2.58,0.41,3.61,1.23
			c1.28,1.02,2.43,2.22,3.36,3.58c0.68,1,1.32,2.15,2.45,2.57c0.51,0.19,1.07,0.2,1.62,0.19c1.97-0.06,4-0.54,5.54-1.77
			s2.51-3.31,2.02-5.22c-0.18-0.7-0.58-1.4-1.25-1.69c-0.86-0.37-1.85,0.02-2.64,0.51c-2.66,1.64-3.62,3.98-5.04,6.58
			C29.49,16.91,26.49,16.42,24.04,15.82z"/>
	</g>
</g>
<g id="Familie" class="st1">
	<g class="st2">
		<path class="st3" d="M21.33,22.38c-0.4,8.53-0.81,17.06-1.21,25.59"/>
		<path class="st3" d="M24.4,22.74c0.83,8.58-0.31,17.27,0.69,25.83"/>
		<path class="st3" d="M30.92,33.11c-1.52-3.66-3.12-7.27-4.81-10.85c-0.48,3.96-0.59,7.96-0.33,11.94
			c-1.86,0.09-3.72,0.17-5.58,0.26c-0.07-4.51-0.33-8.8-0.41-13.32c-1.19,4.28-2.38,8.56-3.57,12.83"/>
		<path class="st3" d="M17.72,28.59c0.33-1.27,0.67-3.32,1-4.59c0.27-1.03,0.55-2.09,1.04-2.9c1.16-1.95,3.05-1.59,4.76-1.59
			c1.97,0,4.21,5.5,4.46,7.92"/>
		<path class="st3" d="M35.49,19.82c-0.38,0.57-0.52,1.27-0.65,1.94c-1.03,5.22-2.02,10.44-2.99,15.67c3.28-0.43,6.59-0.6,9.9-0.52
			c-1.36-2.24-2.03-4.83-2.43-7.43c-0.4-2.59-0.54-5.22-0.94-7.81C38.15,20.24,36.93,17.62,35.49,19.82z"/>
		<path class="st3" d="M35.33,35.29c-0.46,4.41-0.61,8.85-0.44,13.28"/>
		<path class="st3" d="M39.34,34.91c0.07,4.49-0.19,8.98-0.78,13.42"/>
		<path class="st3" d="M30.72,31.69c0.29-1.94,0.57-3.89,0.86-5.83c0.24-1.61,0.49-3.26,1.32-4.66c0.84-1.39,2.41-2.48,4.01-2.23
			c1.51,0.23,3.03,1.92,3.8,3.24s1.27,2.77,1.76,4.21c0.77,2.26,1.55,4.52,2.32,6.77"/>
		<path class="st3" d="M21.6,12.07c-0.62,0.7-0.91,1.71-0.66,2.61c0.25,0.9,1.07,1.64,2,1.71c0.54,0.04,1.1-0.15,1.48-0.55
			c0.28-0.3,0.45-0.7,0.53-1.11c0.13-0.63,0.06-1.3-0.24-1.86C24.16,11.88,22.49,11.06,21.6,12.07z"/>
		<path class="st3" d="M34.87,13.34c-0.06,0.79,0.17,1.63,0.76,2.17c0.59,0.53,1.56,0.65,2.18,0.15c0.53-0.42,0.69-1.15,0.74-1.83
			c0.08-0.97-0.13-2.51-1.4-2.4C36.17,11.52,34.95,12.33,34.87,13.34z"/>
		<path class="st3" d="M36.04,21.15c1.3-0.18,1.04,0.7,2.34,0.52c-1.98,0.8-2.44,0.48-4.47,1.17c0.91-0.09,1.81-0.17,2.72-0.26
			c-0.5,0.42-1,0.84-1.5,1.25c0.35,0.14,0.76,0.14,1.11-0.02c-0.5,0.45-1,0.9-1.5,1.34c0.49-0.07,0.97-0.15,1.46-0.22
			c-0.87,0.65-1.74,1.3-2.62,1.95c1.22-0.12,2.44-0.25,3.66-0.37c-0.95,0.62-1.91,1.24-2.86,1.86c1.31-0.17,2.62-0.34,3.92-0.51
			c-1.57,0.79-3.19,1.48-4.84,2.07c1.29-0.27,2.61-0.42,3.94-0.42c-0.84,0.48-1.72,0.88-2.64,1.2c0.97-0.13,1.96-0.16,2.94-0.1
			c-1.07,0.55-2.2,0.96-3.37,1.22c0.67,0.01,1.33,0.02,2,0.02c-0.73,0.36-1.46,0.72-2.19,1.08c0.74-0.01,1.48-0.03,2.21-0.04
			c-0.41,0.25-0.82,0.5-1.23,0.75c0.91-0.07,1.82-0.08,2.73-0.02c-0.53,0.28-1.06,0.57-1.59,0.85c0.74-0.04,1.48-0.08,2.21-0.11
			c-0.71,0.3-1.43,0.6-2.14,0.9c0.47,0.08,0.96,0.08,1.43-0.01c-0.37,0.22-0.78,0.36-1.2,0.41"/>
		<path class="st3" d="M23.26,21c-1.12,0.26-2.25,0.45-3.4,0.56c0.73-0.22,1.46-0.44,2.19-0.65c-0.32,0.17-0.64,0.35-0.96,0.52
			c1.05-0.06,2.1-0.18,3.13-0.34c-1.64,0.86-3.23,1.82-4.76,2.86c1.17,0.18,2.36,0.24,3.55,0.16c-0.72,0.4-1.39,0.9-1.98,1.49
			c0.35,0.11,0.73,0.15,1.1,0.11c-0.13,0.29-0.31,0.56-0.54,0.79c0.81,0.16,1.64,0.23,2.46,0.22c-0.51,0.33-1.02,0.65-1.53,0.98
			c0.3-0.01,0.61,0.04,0.89,0.16c-0.15,0.19-0.3,0.38-0.45,0.57c0.2,0.17,0.44,0.3,0.7,0.39c-0.31,0.33-0.65,0.64-1.02,0.92
			c0.13,0.06,0.26,0.11,0.39,0.17c-0.18,0.19-0.36,0.39-0.54,0.58c-0.05,0.05-0.1,0.11-0.11,0.18c-0.01,0.07,0.03,0.15,0.05,0.22
			c0.14,0.39-0.14,0.87-0.55,0.94c0.32,0.07,0.64,0.14,0.96,0.21c-0.13,0.07-0.16,0.28-0.04,0.38"/>
		<path class="st3" d="M36.71,12.92c-0.12-0.02-0.23,0.08-0.27,0.2c-0.04,0.12-0.01,0.24,0.02,0.36c0.05,0.19,0.12,0.38,0.2,0.56
			c0.07,0.15,0.16,0.31,0.32,0.36c0.16,0.05,0.37-0.08,0.32-0.24c-0.33-0.17-0.73-0.16-1.05,0.01c0.3,0,0.59-0.1,0.83-0.27"/>
		<path class="st3" d="M22.76,12.78c-0.23,0.2-0.49,0.43-0.49,0.74c-0.01,0.27,0.21,0.52,0.47,0.55c0.26,0.04,0.54-0.15,0.6-0.41
			c-0.2-0.08-0.37,0.25-0.21,0.39s0.45-0.02,0.45-0.24c-0.11-0.19-0.47-0.13-0.51,0.09"/>
		<path class="st3" d="M49.55,29.46c0.01,0.34,0.11,0.67,0.21,0.99c0.04,0.13,0.09,0.28,0.19,0.37c0.13,0.12,0.31,0.14,0.49,0.14
			c0.49,0.02,1.03-0.05,1.37-0.4c0.26-0.27,0.37-0.66,0.38-1.03c0.01-0.17,0-0.35-0.06-0.52C51.65,27.76,49.51,28.02,49.55,29.46z"
			/>
		<path class="st3" d="M45.32,33.01c1.06,0.36,2.04,0.97,2.82,1.76c0.45-0.36,0.61-0.97,0.97-1.43c0.49-0.63,1.39-0.91,2.15-0.67
			c1.04,0.33,2.03,1.49,2.68,2.38c0.23,0.31,0.42,0.64,0.61,0.97c0.84,1.45,1.69,2.91,2.27,4.49"/>
		<path class="st3" d="M49.11,34.14c-0.39,1.54,0.09,3.19-0.19,4.75c-0.27,1.54-1.24,2.84-2.18,4.09c0.38,0.05,0.76,0.09,1.13,0.14
			c0.06,0.01,0.13,0.02,0.17,0.07c0.03,0.04,0.04,0.1,0.04,0.16c0.01,1.52,0.01,3.03,0.02,4.55"/>
		<path class="st3" d="M51.69,33.11c0.1,3.05,0.19,6.09,0.29,9.14c0,0.12,0.01,0.24,0.06,0.35c0.16,0.33,0.64,0.31,0.99,0.2
			c0.35-0.11,0.77-0.24,1.05-0.01c-0.37,0.31-1.01,0.22-1.29,0.62c-0.14,0.19-0.14,0.45-0.14,0.68c0.01,1.27,0.03,2.53,0.04,3.8"/>
		<path class="st3" d="M48.56,42.81c0.83-0.08,1.66-0.27,2.44-0.58c-0.62-0.09-0.99-0.76-1.07-1.39c-0.08-0.62,0.02-1.26-0.11-1.87"
			/>
		<path class="st3" d="M7.76,28.48c-0.14,0.49-0.2,1.05,0.08,1.48c0.23,0.35,0.64,0.53,1.05,0.63c0.37,0.09,0.79,0.1,1.08-0.14
			c0.16-0.14,0.25-0.35,0.31-0.55c0.14-0.52,0.12-1.09-0.14-1.56C9.53,27.18,8.12,27.19,7.76,28.48z"/>
		<path class="st3" d="M16.88,31.29c-1.7,0.95-3.4,1.9-5.11,2.85c-0.13,0.07-0.27,0.15-0.42,0.17c-0.21,0.03-0.43-0.05-0.63-0.11
			c-1.44-0.48-3.2-0.53-4.31,0.51c-0.67,0.63-0.98,1.54-1.31,2.41c-0.55,1.47-1.19,2.9-1.92,4.28"/>
		<path class="st3" d="M11.19,48.49c-0.59-4.5-0.82-9.04-0.68-13.57"/>
		<path class="st3" d="M6.77,47.81c0.49-2.78,0.08-5.65,0.58-8.43c0.2-1.09,0.53-2.17,0.62-3.27"/>
		<path class="st3" d="M7.73,40.99c0.56-0.08,1.12-0.19,1.66-0.34"/>
		<path class="st3" d="M8.8,39.64c0.06-0.45,0.12-0.9,0.19-1.36"/>
		<path class="st3" d="M52.37,36.86c0.02,0.68,0.11,1.35,0.26,2.01c0.27,1.19,0.71,2.33,1.14,3.46"/>
		<path class="st3" d="M50.37,34.85c-0.07,1.46-0.05,2.93,0.07,4.39"/>
		<path class="st3" d="M38.19,31.34c0.11,0.72,0.05,1.46-0.16,2.15c-0.04-0.3-0.09-0.61-0.13-0.91c-0.93,1.12-1.93,2.19-2.98,3.2
			c-0.36,0.34-0.78,0.7-1.28,0.67c-0.06-0.25-0.11-0.5-0.17-0.75c-0.1-0.46-0.17-1.03,0.2-1.32"/>
	</g>
</g>
</svg>
