<svg xmlns="http://www.w3.org/2000/svg" viewBox="0 0 60 60"><defs><style>.cls-1{fill:#fff6b1;}.cls-2{fill:none;stroke:#0042ff;stroke-linecap:round;stroke-linejoin:round;stroke-width:3px;}</style></defs><title>handarbeit</title><g id="Ebene_2" data-name="Ebene 2"><circle class="cls-1" cx="30" cy="30" r="30"/></g><g id="Ebene_32" data-name="Ebene 32"><path class="cls-2" d="M30.19,31.13a4.33,4.33,0,0,1-3.53,1.16.39.39,0,0,1-.29-.14.39.39,0,0,1,0-.3c.82-2.55,3.08-4.76,2.8-7.43a1.05,1.05,0,0,0-.19-.57.89.89,0,0,0-.33-.21,2.57,2.57,0,0,0-2.69.43,5,5,0,0,0-1.06,1.58L22.1,31.32a42.66,42.66,0,0,1-2.4,4.41c-.7,1.08-1.5,2.1-2.1,3.23-.43.79-.75,1.64-1.18,2.42a20.36,20.36,0,0,1-3.88,4.67,39.38,39.38,0,0,1-7.16,6"/><path class="cls-2" d="M40.16,45.22A60.92,60.92,0,0,1,48.92,40a2.2,2.2,0,0,1,1.36-.32,2,2,0,0,1,1.11.8,2.76,2.76,0,0,1,.82,2c-.13,1-1.08,1.55-1.91,2-3.32,2-6.23,4.57-9.38,6.81s-6.69,4.15-10.54,4.51c-3.39.32-6.77-.6-10.17-.56a18,18,0,0,0-4.33.56"/><path class="cls-2" d="M35.35,34.9c2.7-2.33,5.87-3.59,8.94-5.42,1.5-.89,2.64-2.65,4.26-3.26.81-.31,1.2-.54,1.06-1.51A2.34,2.34,0,0,0,48.31,23a4.66,4.66,0,0,0-3.37,0,12.46,12.46,0,0,0-2.63,1.12c-1.12.64-2.13,1.45-3.18,2.18a31.63,31.63,0,0,1-8.87,4.33"/><path class="cls-2" d="M50.06,39.88a20.4,20.4,0,0,0,2.23-1.8A5.56,5.56,0,0,0,54,35.54a2.28,2.28,0,0,0-1.1-2.65,2.78,2.78,0,0,0-1.54-.08,16.7,16.7,0,0,0-5.14,2.26,66.33,66.33,0,0,1-8.37,4"/><path class="cls-2" d="M47,27.27a7.92,7.92,0,0,1,4.51-1.82,3.49,3.49,0,0,1,1.75.26,2.83,2.83,0,0,1,1.17,3.43A5.65,5.65,0,0,1,51.8,32"/><path class="cls-2" d="M15.67,10.65A5.73,5.73,0,0,1,20.32,8a3.72,3.72,0,0,1,1.62.27,3.61,3.61,0,0,1,1.89,3.56,9.14,9.14,0,0,1-1.5,4,25.52,25.52,0,0,1-3.94,5.3,11.62,11.62,0,0,0-2.66,3.12c-2-2.94-4.47-5.51-6.4-8.48S6.06,9.14,6.8,5.69a2,2,0,0,1,.82-1.41,1.86,1.86,0,0,1,.77-.19,7.07,7.07,0,0,1,4.82,1.5,10.2,10.2,0,0,1,3.06,4.06"/><path class="cls-2" d="M33.72,11.48a3.38,3.38,0,0,0-2.62-1.7,2.37,2.37,0,0,0-1,.11,2.07,2.07,0,0,0-1.21,2,5.2,5.2,0,0,0,.75,2.33,14.72,14.72,0,0,0,2.14,3.17,6.58,6.58,0,0,1,1.46,1.88c1.24-1.64,2.78-3,4-4.69A7.79,7.79,0,0,0,39.06,8.9a1.15,1.15,0,0,0-.44-.84,1.14,1.14,0,0,0-.44-.14,4.2,4.2,0,0,0-2.86.72,5.85,5.85,0,0,0-1.91,2.25"/></g></svg>