<svg xmlns="http://www.w3.org/2000/svg" viewBox="0 0 60 60"><defs><style>.cls-1{fill:#fff6b1;}.cls-2{fill:none;stroke:#0042ff;stroke-linecap:round;stroke-linejoin:round;stroke-width:3px;}</style></defs><title>hut</title><g id="Ebene_2" data-name="Ebene 2"><circle class="cls-1" cx="30" cy="30" r="30"/></g><g id="Hut"><path class="cls-2" d="M42.49,27.56a40.76,40.76,0,0,1,8.56,2.57c2.29,1,5.67,3.41,4.51,6.33a5.39,5.39,0,0,1-1.47,1.95c-2.4,2.11-5.87,3.2-8.87,4.17a40.23,40.23,0,0,1-11.54,1.68c-8.36.14-17.63-.44-25.23-4.23-1.73-.86-3.61-2-4.1-4C3,30.51,11.14,28,15.17,27.64c1-.08,2.09.34,2.41-.78a28.7,28.7,0,0,1,2.75-5.34,43.2,43.2,0,0,0,2.18-6c.34-1,1.07-2,2.09-1.91a2.86,2.86,0,0,1,1,.42c3.45,1.87,7.1.88,10.36-.85a1.84,1.84,0,0,1,2.52.67,4.74,4.74,0,0,1,.42,1.42c.66,3.68.82,8,2.68,11.26"/><path class="cls-2" d="M16.16,28.12c2.4,1.52,5.32,1.94,8.14,2.21,6.08.58,12.41.61,18.06-1.71"/><path class="cls-2" d="M15.78,32.42c3.76,1.67,8,2.11,12,2.48,4.36.38,9,.66,12.87-1.36"/></g></svg>