<svg xmlns="http://www.w3.org/2000/svg" viewBox="0 0 60 60"><defs><style>.cls-1{fill:#fff6b1;}.cls-2{fill:none;stroke:#0042ff;stroke-linecap:round;stroke-linejoin:round;stroke-width:3px;}</style></defs><title>interior</title><g id="Ebene_2" data-name="Ebene 2"><circle class="cls-1" cx="30" cy="30" r="30"/></g><g id="interior"><path class="cls-2" d="M37.5,55.69H24.37c-1.06-.54-2.6-1.44-2.89-2.59s.44-2.35,1.06-3.4a12.47,12.47,0,0,0,2-7.21C24.24,39.23,22.14,36.43,20,34a17.09,17.09,0,0,1-2.26-2.84,4.74,4.74,0,0,1-.57-3.48H43.58c0-.27,1.65,1.61,1.48,3a12.14,12.14,0,0,1-1.52,4l-2,3.76c-1.08,2.08-2.2,4.37-1.74,6.67s2.35,4.13,2.21,6.41A4.59,4.59,0,0,1,37.5,55.69Z"/><path class="cls-2" d="M15,5.84a76.76,76.76,0,0,1,7.3,13.8c1.49,3.67,2.73,7.5,4,11.32"/><path class="cls-2" d="M34.06,8Q31.23,27.16,30,46.53"/><path class="cls-2" d="M42.55,6.54,35.93,33.05"/><path class="cls-2" d="M18,9.9,13.62,11"/><path class="cls-2" d="M41.58,14.62l4.8-.44"/><path class="cls-2" d="M32.4,12.24l-2.78-1.71"/><path class="cls-2" d="M20.81,12.8a4.43,4.43,0,0,1,1-1.62,8.15,8.15,0,0,0,1.56-3.72"/><path class="cls-2" d="M39.11,20.35l-1.79-1.5"/><path class="cls-2" d="M39.62,10.85a23.48,23.48,0,0,1-.76-3.71"/><path class="cls-2" d="M32.11,20.61l1.65-1.78"/><path class="cls-2" d="M31,22.46a21.63,21.63,0,0,1-2.6-2.89"/><path class="cls-2" d="M33.88,7.61a6,6,0,0,1-.51-3.3"/><path class="cls-2" d="M23.51,20.73l-2.37-1.59"/><path class="cls-2" d="M39.09,24.43a23.31,23.31,0,0,1,2.23-1.73"/></g></svg>