<svg xmlns="http://www.w3.org/2000/svg" viewBox="0 0 60 60"><defs><style>.cls-1{fill:#fff6b1;}.cls-2{fill:none;stroke:#0042ff;stroke-linecap:round;stroke-linejoin:round;stroke-width:3px;}</style></defs><title>kaffeebohne</title><g id="Ebene_2" data-name="Ebene 2"><circle class="cls-1" cx="30" cy="30" r="30"/></g><g id="Kaffeebohne"><path class="cls-2" d="M12,46c7.06,8,18.65,4.39,28.84-4.64s13.78-21.6,8-28.07S30.24,8.92,20.05,18,4.25,36.6,12,46Z"/><path class="cls-2" d="M50.58,15.61c-6-.61-14.66.09-19.69,3.5-1.56,1.06-3.1,2.44-3.49,4.28A10.36,10.36,0,0,0,27.59,27c.39,2.57.33,5.44-1.32,7.46A10.6,10.6,0,0,1,22,37.23a83.42,83.42,0,0,1-11.42,4"/><path class="cls-2" d="M9.63,42.31c4.41.61,9.53.75,13.68-.85A20.65,20.65,0,0,0,29.69,38a11.75,11.75,0,0,0,3.89-9.26c-.09-1.77-.57-3.61.08-5.25.8-2,3-3.05,5.08-3.83,3.89-1.49,7.85-2.83,11.84-4"/></g></svg>