<svg xmlns="http://www.w3.org/2000/svg" viewBox="0 0 60 60"><defs><style>.cls-1{fill:#fff6b1;}.cls-2{fill:none;stroke:#0042ff;stroke-linecap:round;stroke-linejoin:round;stroke-width:3px;}</style></defs><title>kaffee</title><g id="Ebene_2" data-name="Ebene 2"><circle class="cls-1" cx="30" cy="30" r="30"/></g><g id="Kaffee"><path class="cls-2" d="M8.16,56.35C25,52.71,34.91,50.45,52,50.59"/><path class="cls-2" d="M8.16,32.4a7.61,7.61,0,0,1,.13-3.49c1-2.95,4.52-4.12,7.6-4.77a147.75,147.75,0,0,1,18.24-2.71c2.32-.2,4.86-.29,6.75,1.06,2.54,1.81,2.81,5.38,2.69,8.47a95.08,95.08,0,0,1-1.69,14.57,6,6,0,0,1-1.07,2.79A6.18,6.18,0,0,1,37.58,50c-5.15,1.41-14.52,4.83-19.47,1.47C12.91,47.9,9,38.24,8.16,32.4Z"/><path class="cls-2" d="M43.27,25.52c.4-.05.8-.11,1.21-.13A6.53,6.53,0,0,1,51,31.22a6.52,6.52,0,0,1-5.63,6.71"/><path class="cls-2" d="M23.63,3.76c-1.14-.49-2.45.67-2.57,1.91a5.32,5.32,0,0,0,1.29,3.42,7.94,7.94,0,0,1,1.7,3.28,3.63,3.63,0,0,1-2.26,3.82"/><path class="cls-2" d="M28.69,9.66a1.66,1.66,0,0,0-.47,2.12,7.77,7.77,0,0,0,1.49,1.85,2.78,2.78,0,0,1,.89,2.13,3.35,3.35,0,0,1-1.52,1.93"/></g></svg>