<svg xmlns="http://www.w3.org/2000/svg" viewBox="0 0 60 60"><defs><style>.cls-1{fill:#fff6b1;}.cls-2{fill:none;stroke:#0042ff;stroke-linecap:round;stroke-linejoin:round;stroke-width:3px;}</style></defs><title>mode</title><g id="Ebene_2" data-name="Ebene 2"><circle class="cls-1" cx="30" cy="30" r="30"/></g><g id="Mode"><path class="cls-2" d="M9.62,18.88A7.58,7.58,0,0,1,12,14.74L10.15,32.6A131.38,131.38,0,0,0,25,31l-1.71-17.7A9,9,0,0,1,25.8,17,7,7,0,0,1,30,13.35a21.57,21.57,0,0,1-5.67-7.82A18.39,18.39,0,0,1,13.49,7a2.11,2.11,0,0,0-.9,0,1.81,1.81,0,0,0-.69.47c-1.64,1.49-5.67,4-6.4,6.06-.41,1.16.25,1.9,1,2.71C6.86,16.6,9.69,18.53,9.62,18.88Z"/><path class="cls-2" d="M50.87,15.37c-3.32-.49-7-.63-10.2-1.53-1-.27-1.77-.39-2.21-1.42-.21-.5.4-3.72.25-3.77a55.12,55.12,0,0,0,15.82,2.42A246.67,246.67,0,0,1,49.6,52.6l-4.73-.1c.35-9.31-1.64-17.73-1.3-27L38.22,51,31.75,49.8c2.24-12,4.85-24.15,6.41-36.31"/><path class="cls-2" d="M15.3,40.1a2.88,2.88,0,0,1,.85-.64c.28-.12.64-.32.9-.16a3.65,3.65,0,0,0,5.44-2,24.84,24.84,0,0,1,2.19,6.24,4.29,4.29,0,0,1,.11,1.13,3.11,3.11,0,0,1-.41,1.2,8.67,8.67,0,0,1-2.81,2.78,41.71,41.71,0,0,1-12.42,6A3.13,3.13,0,0,1,7,54.69a2.84,2.84,0,0,1-1.21-1.26,5.91,5.91,0,0,1-.52-4.2c.58-2.29,2.36-3.23,4-4.31A44.31,44.31,0,0,0,15.3,40.1Z"/><path class="cls-2" d="M9.27,46.51A6.44,6.44,0,0,1,10.47,48"/><path class="cls-2" d="M11.63,44.23a3.21,3.21,0,0,1,2.06,2"/><path class="cls-2" d="M14.69,42.8c.52.57,1.47.71,2,1.27"/></g></svg>