<svg xmlns="http://www.w3.org/2000/svg" viewBox="0 0 60 60"><defs><style>.cls-1{fill:#fff6b1;}.cls-2{fill:none;stroke:#0042ff;stroke-linecap:round;stroke-linejoin:round;stroke-width:3px;}</style></defs><title>möbel</title><g id="Ebene_2" data-name="Ebene 2"><circle class="cls-1" cx="30" cy="30" r="30"/></g><g id="Möbel"><path class="cls-2" d="M12.37,50.54q16.56-1.11,33.17-1.3"/><path class="cls-2" d="M20.17,51.87l-2.11,4.82"/><path class="cls-2" d="M37.21,50.28a25.85,25.85,0,0,1,2.21,5.58"/><path class="cls-2" d="M12.37,50.64a.36.36,0,0,1-.08-.39V30.51a2.24,2.24,0,0,1,1.43-.77q16.92-1.51,33.86-2.65a38.69,38.69,0,0,1,.07,6.09l-.42,11-.14,3.68A2,2,0,0,1,46.8,49a.68.68,0,0,1-1,.12"/><path class="cls-2" d="M18.8,28.09l11-.81"/><path class="cls-2" d="M24.84,26.69q.09-5.53.47-11l-.17.34"/><path class="cls-2" d="M18.06,39.24q11.72-.47,23.37-1.89"/><path class="cls-2" d="M29.89,33.68a.33.33,0,0,0-.28.18"/><path class="cls-2" d="M29.75,44.06a.27.27,0,0,0-.27.36"/><path class="cls-2" d="M16.93,17.16a143,143,0,0,0,16.3-.59A43.18,43.18,0,0,1,29.62,3.31c-3,.13-6,.08-9,.12A92.19,92.19,0,0,0,16.93,17.16Z"/><path class="cls-2" d="M30.26,17.84v.7"/></g></svg>