<svg xmlns="http://www.w3.org/2000/svg" viewBox="0 0 60 60"><defs><style>.cls-1{fill:#fff6b1;}.cls-2{fill:none;stroke:#0042ff;stroke-linecap:round;stroke-linejoin:round;stroke-width:3px;}</style></defs><title>musik</title><g id="Ebene_2" data-name="Ebene 2"><circle class="cls-1" cx="30" cy="30" r="30"/></g><g id="musik"><path class="cls-2" d="M14,8.71c.39,8.09,1.86,16.37,2.63,24.43-.54-2.1-2.73-2-5.34-1.45C7.55,32.48,5.61,35,6,37.87,6.37,41,8.29,41.93,9.67,42a7.35,7.35,0,0,0,5.16-1.58A5.92,5.92,0,0,0,17,36.86a7.11,7.11,0,0,0-.4-3.72"/><path class="cls-2" d="M13.59,8.61l15.08-4"/><path class="cls-2" d="M14.34,15.11q7.56-2.38,15.25-4.35"/><path class="cls-2" d="M28.6,4.69q2.2,11.06,4,22.2A8.26,8.26,0,0,0,24.67,28a6.07,6.07,0,0,0-1.5,7.51,3.36,3.36,0,0,0,1,1.06,3.89,3.89,0,0,0,2.06.56,7.78,7.78,0,0,0,2.53-.35,7.2,7.2,0,0,0,4.35-3.64A6.17,6.17,0,0,0,33,27.55"/><path class="cls-2" d="M44.76,46.53a10.38,10.38,0,0,1-.6,2.59,5.8,5.8,0,0,1-3.72,3.2,8.11,8.11,0,0,1-5-.22A5.5,5.5,0,0,1,33,50.5,5.88,5.88,0,0,1,32,46a7.29,7.29,0,0,1,1-3,5.86,5.86,0,0,1,1.24-1.39,7.31,7.31,0,0,1,5.45-1.84,5.62,5.62,0,0,1,4.59,3.27,7.4,7.4,0,0,1,.77,3.12l2.71-27.71a4.23,4.23,0,0,1,3.89,3.33,15.07,15.07,0,0,1-.16,5.94,13.24,13.24,0,0,0,0,5.94,6.86,6.86,0,0,0,3.65,4.17"/></g></svg>