<svg xmlns="http://www.w3.org/2000/svg" viewBox="0 0 60 60"><defs><style>.cls-1{fill:#fff6b1;}.cls-2{fill:none;stroke:#0042ff;stroke-linecap:round;stroke-linejoin:round;stroke-width:3px;}</style></defs><title>naehbedarf</title><g id="Ebene_2" data-name="Ebene 2"><circle class="cls-1" cx="30" cy="30" r="30"/></g><g id="Ebene_29" data-name="Ebene 29"><path class="cls-2" d="M10.35,12C6.06,16.74,5.56,23.75,6,30.13c.2,3.47.64,7,2.32,10.08,3.13,5.64,9.83,8.24,16.17,9.43,4.36.83,9,1.16,13.08-.69a16,16,0,0,0,7.3-7.23c5.22-9.87,4.25-28.43-8-33.13C27.44,5,17.76,3.82,10.35,12Z"/><path class="cls-2" d="M9.07,12.57c2.69,3,6.35,5.05,9.92,7,8.54,4.62,17.67,9.37,27.35,8.71"/><path class="cls-2" d="M6.79,17.14c10.88,11.18,31.81,12.8,36.65,13.3"/><path class="cls-2" d="M5.14,23.05c1.43,2.64,4.43,4,7.26,5a93.48,93.48,0,0,0,32.81,5.34"/><path class="cls-2" d="M26.48,6.44c1.38,1.75,1.7,4.44,1.94,6.93.32,3.21.62,6.56-.19,9.63"/><path class="cls-2" d="M32.72,6.36c2.3,6,.78,12.42-.75,18.56"/><path class="cls-2" d="M38.83,10.48a44.57,44.57,0,0,1-2.54,15.31"/><path class="cls-2" d="M18.35,7.29a9.8,9.8,0,0,1,2.71,6A28.77,28.77,0,0,1,20.84,20"/><path class="cls-2" d="M44.43,16.21a3.63,3.63,0,0,1-.27,2.43l-3.11,8.7"/><path class="cls-2" d="M10,42.34q5.12-1.08,10.15-2.42c4.94-1.31,10-2.92,13.78-6.35"/><path class="cls-2" d="M37.46,34.62a22.39,22.39,0,0,1-6.69,7.7c-2.73,2.07-7,4.16-10,5.79"/><path class="cls-2" d="M43.12,34.67a61.85,61.85,0,0,1-9.6,12.63c-.29.3-2.84,3.05-3.25,3"/><path class="cls-2" d="M5.91,34.74A46.78,46.78,0,0,0,22,31.53"/><path class="cls-2" d="M43.55,31.15l7.78,1.07a4.35,4.35,0,0,1,1.78.5,3,3,0,0,1,1.17,1.4A6.82,6.82,0,0,1,53.66,40c-1,1.8-2.36,3.33-3.46,5a8.05,8.05,0,0,0-1.53,5.78c.39,2,2.38,3.78,4.37,3.32"/></g></svg>