<svg xmlns="http://www.w3.org/2000/svg" viewBox="0 0 60 60"><defs><style>.cls-1{fill:#fff6b1;}.cls-2{fill:none;stroke:#0042ff;stroke-linecap:round;stroke-linejoin:round;stroke-width:3px;}</style></defs><title>optiker</title><g id="Ebene_2" data-name="Ebene 2"><circle class="cls-1" cx="30" cy="30" r="30"/></g><g id="Optiker"><path class="cls-2" d="M6.29,31.32a11.57,11.57,0,0,0,1.87,8.52c3.15,4.27,9.24,4.92,14.12,3.24a7.94,7.94,0,0,0,2.88-1.57c1.5-1.39,2.06-3.57,2.29-5.65.72-6.43-1.77-11.09-8.54-12.94C12.86,21.27,7.11,25.92,6.29,31.32Z"/><path class="cls-2" d="M53.84,34.16a11.52,11.52,0,0,0-2.69-8.29c-3.54-3.95-9.66-4-14.36-1.87a8.13,8.13,0,0,0-2.72,1.84c-1.35,1.53-1.7,3.76-1.73,5.85-.1,6.47,2.83,10.87,9.75,12.06C48.27,44.81,53.54,39.63,53.84,34.16Z"/><path class="cls-2" d="M25.73,27a4.2,4.2,0,0,1,7-.22"/><path class="cls-2" d="M53.49,28.15c-.76-4.43-4.41-14.23-8-17a3.63,3.63,0,0,0-.88-.58,1.78,1.78,0,0,0-2.34,2.22"/><path class="cls-2" d="M6.66,28.15c.65-1.93,4.68-10.8,9.08-16,.47-.55.71-1.34,1.38-1.6a2.31,2.31,0,0,1,1.63.14c1.21.5,2.27,1.93,1.62,3.07"/><path class="cls-2" d="M16.5,27c-3.38.1-6.08,3.46-6.38,5.55"/><path class="cls-2" d="M40.58,26.75c-3.14.78-4.65,2.87-4.38,5.74"/></g></svg>