<svg xmlns="http://www.w3.org/2000/svg" viewBox="0 0 60 60"><defs><style>.cls-1{fill:#fff6b1;}.cls-2{fill:none;stroke:#0042ff;stroke-linecap:round;stroke-linejoin:round;stroke-width:3px;}</style></defs><title>party</title><g id="Ebene_2" data-name="Ebene 2"><circle class="cls-1" cx="30" cy="30" r="30"/></g><g id="Ebene_28" data-name="Ebene 28"><path class="cls-2" d="M21.18,49.94l-8.84,3.21C10.28,53.9,8,54.65,6,54a2.63,2.63,0,0,1-1.32-.82c-1.16-1.5.25-4.11.86-5.55q1.43-3.36,3-6.67c2.55-5.51,5.46-10.83,7.91-16.38.75-1.7.64-3.53,2-4.76A4.92,4.92,0,0,1,22.91,19a14,14,0,0,1,4.2,2.21c1,.68,1.95,1.36,2.88,2.11a38.09,38.09,0,0,1,9.74,12.48A14.46,14.46,0,0,1,41,38.89a3.22,3.22,0,0,1-.58,3.2,3.29,3.29,0,0,1-2.12.68,9.92,9.92,0,0,1-6.45-2.14,36.31,36.31,0,0,1-3-3c-1.14-1.18-2.41-2.23-3.49-3.47a30.43,30.43,0,0,1-3.59-5.68l-2.22-4.18a10.61,10.61,0,0,1-1.34-3.43"/><path class="cls-2" d="M36.56,44.07l-3.42,1.41c-.55.23-1.1.45-1.67.63"/><path class="cls-2" d="M25.22,48.46,26.5,48"/><path class="cls-2" d="M23.11,38.48,21.78,40a2.15,2.15,0,0,0-.68,2.24l.37,2.52a5.32,5.32,0,0,0-2.22-.94c-1.57-.16-2.95,1-4.5,1.34a5.38,5.38,0,0,0-1.83-5.95c.87-.66,1.88-.67,2.77-1.18s1-1.63,2.09-1.72c1.2-.1,1.09,1.22,1.88,1.62C19.79,38,23.18,38.4,23.11,38.48Z"/><path class="cls-2" d="M36,39.07c0-1,.93-1.66,1.77-2.15a28.9,28.9,0,0,1,10.91-3.81,6.09,6.09,0,0,1,6.13,2.71,6.29,6.29,0,0,1,.58,5.71c-.66,1.5-2.69,3.14-4.24,1.8-1-.91-.78-2.54-.33-3.68"/><path class="cls-2" d="M39.89,28.87A26.64,26.64,0,0,1,54,21.66"/><path class="cls-2" d="M36.48,16.93a20.32,20.32,0,0,1-8,11.38"/><path class="cls-2" d="M23.33,23.09a14.9,14.9,0,0,0,5-6.66,10.47,10.47,0,0,0-.43-8.18A4.73,4.73,0,0,0,26.55,6.6a4.52,4.52,0,0,0-2.23-.8,4.89,4.89,0,0,0-3.43.7,2.85,2.85,0,0,0-1.14,3.14,2.83,2.83,0,0,0,2.14,1.69,4.89,4.89,0,0,0,2.79-.39"/><path class="cls-2" d="M36.8,10.31a3,3,0,0,0,1.67,2.18,6.3,6.3,0,0,0,2.79.55,3.17,3.17,0,0,0,1.15-.16,2.28,2.28,0,0,0,1.3-2.05c0-1.69-1.38-4.49-3.33-4.4A3.52,3.52,0,0,0,36.8,10.31Z"/></g></svg>