<svg xmlns="http://www.w3.org/2000/svg" viewBox="0 0 60 60"><defs><style>.cls-1{fill:#fff6b1;}.cls-2{fill:none;stroke:#0042ff;stroke-linecap:round;stroke-linejoin:round;stroke-width:3px;}</style></defs><title>pizza</title><g id="Ebene_2" data-name="Ebene 2"><circle class="cls-1" cx="30" cy="30" r="30"/></g><g id="Pizza"><path class="cls-2" d="M46.57,28.24a65.27,65.27,0,0,0,7.87-5.31,10.42,10.42,0,0,0,1.51-5,11.42,11.42,0,0,0-.86-6.4,3.45,3.45,0,0,0-1.51-1.6,3.14,3.14,0,0,0-2-.07,6.51,6.51,0,0,0-3.8,3.21,18.54,18.54,0,0,0-1.68,4.79"/><path class="cls-2" d="M11,44.22a130.61,130.61,0,0,0,24.47-9.75l.68-.35"/><path class="cls-2" d="M6.89,51.07a2.91,2.91,0,0,0,3-2.14,12.67,12.67,0,0,0,.32-4,5.09,5.09,0,0,1,1.26-3.72c1-.91,2.45-1,3.79-1.17a40.86,40.86,0,0,0,5-.88,10.89,10.89,0,0,0,3-1.12A11.13,11.13,0,0,0,25.73,36a53.42,53.42,0,0,0,3.94-4.69,4.29,4.29,0,0,1,1.61-1.53,2.71,2.71,0,0,1,2.76.6,6.25,6.25,0,0,1,1.55,2.51c.09.23.43,2.23.59,2.42.36.41,1.3,3.14,1.82,3,.89-.31,1.17-3.86,1.43-4.78a24.29,24.29,0,0,0,0-4.59l-.15-3.52a7.46,7.46,0,0,1,3.6,3.17,8.37,8.37,0,0,0,1,1.7,1.7,1.7,0,0,0,1.79.57c.88-.35,1-1.54.94-2.49a53.86,53.86,0,0,0-1.14-8.4,3.38,3.38,0,0,0-.55-1.42,3.32,3.32,0,0,0-1.27-.87,27.36,27.36,0,0,0-14.85-2.3,7.45,7.45,0,0,0-2.24.56,8.59,8.59,0,0,0-2,1.49Q18,23.44,11.08,29.2c-2.81,2.35-5.8,4.89-6.79,8.42s1.38,10,2.6,13.45"/><path class="cls-2" d="M29.09,22.84a3.23,3.23,0,0,0,2.63,1.31,3.46,3.46,0,0,0,2-.32A3.05,3.05,0,0,0,35,22.36a5.36,5.36,0,0,0,.4-2.85c-.23-1.71-3.31-2-4.67-1.54C28.86,18.51,28.2,21.3,29.09,22.84Z"/><path class="cls-2" d="M18,28c-.65,1.19-.88,2.76-1.43,4,2.18.71,5.35,1.2,7.35.09-.79-.75-.82-2.39-1.14-3.43a1.71,1.71,0,0,0,1.88-.84c1.66-3.3-.47-4.74-3.89-5-2-.15-4.85.83-4.39,3.15C16.77,27.71,17.05,26.8,18,28Z"/><path class="cls-2" d="M8.69,37.3h.09"/><path class="cls-2" d="M53,9.4C46.3,7.85,39.32,6.3,32.65,7.9a6.73,6.73,0,0,0-1.82.67,5.4,5.4,0,0,0-1.68,1.65A10.07,10.07,0,0,0,27.39,15"/><path class="cls-2" d="M50.78,14.51A3.16,3.16,0,0,1,52,16.65a2.54,2.54,0,0,1-1,2.2,2,2,0,0,0-.68.6"/><path class="cls-2" d="M39.62,33A14.79,14.79,0,0,1,43,31.24a.61.61,0,0,0,.29-.17.63.63,0,0,0,.1-.27l.21-1.08"/></g></svg>