<svg xmlns="http://www.w3.org/2000/svg" viewBox="0 0 60 60"><defs><style>.cls-1{fill:#fff6b1;}.cls-2{fill:none;stroke:#0042ff;stroke-linecap:round;stroke-linejoin:round;stroke-width:3px;}</style></defs><title>prints</title><g id="Ebene_2" data-name="Ebene 2"><circle class="cls-1" cx="30" cy="30" r="30"/></g><g id="Prints"><path class="cls-2" d="M40.12,47.51c-10,.22-20.17.73-30.1,1.77A250.88,250.88,0,0,0,7.24,7a239.09,239.09,0,0,1,27.83.76C37,21.19,38.38,34.08,40.12,47.51Z"/><path class="cls-2" d="M36.33,13.54q8.22-.24,16.43.28c-2.17,11.61-2.43,27-4.27,39.27-8.34-.33-17-.08-25.31-.41l.47-4.37"/><path class="cls-2" d="M9.77,35.45q5.6-7.07,11-14.3a225.07,225.07,0,0,1,14.46,25.3"/><path class="cls-2" d="M27.86,31.72,31,28.65c1.62,2.22,3.34,4.37,5.14,6.45A5.39,5.39,0,0,0,38,36.67"/><path class="cls-2" d="M27.12,13.11a1.5,1.5,0,0,0-1.77,1.38,3.12,3.12,0,0,0,1,2.29A3.7,3.7,0,0,0,28,17.84a1.9,1.9,0,0,0,1.83-.44,1.93,1.93,0,0,0,.45-.89,3,3,0,0,0-3.71-3.58"/></g></svg>