<svg xmlns="http://www.w3.org/2000/svg" viewBox="0 0 60 60"><defs><style>.cls-1{fill:#fff6b1;}.cls-2{fill:none;stroke:#0042ff;stroke-linecap:round;stroke-linejoin:round;stroke-width:3px;}</style></defs><title>putzen</title><g id="Ebene_2" data-name="Ebene 2"><circle class="cls-1" cx="30" cy="30" r="30"/></g><g id="Sauber"><path class="cls-2" d="M55.15,9.05Q51.82,16.15,48,23"/><path class="cls-2" d="M53.49,34.12c-.29-2.29-2.08-4.06-4.12-5.14a31.67,31.67,0,0,0-6.24-2.7,10.2,10.2,0,0,0-2.31-.42c-1.14,0-4.08.29-2.67,1.47,1.2,1,3.92,1.41,5.4,2,1.72.71,3.43,1.46,5.11,2.27C49.3,31.93,53.42,33.51,53.49,34.12Z"/><path class="cls-2" d="M35.74,31.68a19.79,19.79,0,0,1-6,5.32c-4.48,2.55-9.74,3.24-14.85,3.89l5.53,5.57a9.36,9.36,0,0,0,3.85,2.74c1.53.43,3.48-.19,4-1.7a6.37,6.37,0,0,1-3.53,2.24,28.2,28.2,0,0,0,7.8,3.49,1.85,1.85,0,0,0,1,.07,1.77,1.77,0,0,0,.76-.6L37.51,49,34,52.11a1.82,1.82,0,0,0-.64.87,1.53,1.53,0,0,0,.53,1.28,5.35,5.35,0,0,0,4.59,1.61c2.7-.39,4.64-2.76,6.09-5.07a47.69,47.69,0,0,0,5.74-13.22"/><path class="cls-2" d="M8.25,10.23a4,4,0,0,0-3.13,2.52,3.59,3.59,0,0,0,1,4,4.45,4.45,0,0,0,4.19.79c.49-.16,1.57-.44,1.86-.87a14.35,14.35,0,0,0,1-1.47c.82-1.84.74-3.27-.88-4.34-1.09-.72-2.81-1.26-4-.67"/><path class="cls-2" d="M17.87,7.56a1.41,1.41,0,0,0,.28.8,3.19,3.19,0,0,0,1.41.77,4.34,4.34,0,0,0,2.19.33,2.43,2.43,0,0,0,1.19-.62c1.58-1.44,1-3.72-1.42-4.55C18.66,3.29,17.71,6.09,17.87,7.56Z"/><path class="cls-2" d="M24.28,17.85a10.77,10.77,0,0,0-3.9.57,3.89,3.89,0,0,0-1.42.64,4.34,4.34,0,0,0-1.16,2,13.22,13.22,0,0,0-.86,3.25,4.66,4.66,0,0,0,.75,3.22c1.28,1.76,3.8,2,6,1.82,1.53-.1,3.22-.38,4.17-1.58a4.86,4.86,0,0,0,.7-3.59,9.28,9.28,0,0,0-1.74-4.57c-1-1.31-1.29-1.59-2.93-1.81"/></g></svg>