<svg xmlns="http://www.w3.org/2000/svg" viewBox="0 0 60 60"><defs><style>.cls-1{fill:#fff6b1;}.cls-2{fill:none;stroke:#0042ff;stroke-linecap:round;stroke-linejoin:round;stroke-width:3px;}</style></defs><title>rad</title><g id="Ebene_2" data-name="Ebene 2"><circle class="cls-1" cx="30" cy="30" r="30"/></g><g id="Rad"><path class="cls-2" d="M13.51,24.65c-6.28-.12-10,3.49-10.59,9.74A13.08,13.08,0,0,0,13.29,48a8.57,8.57,0,0,0,4.44-.27,8.19,8.19,0,0,0,4.72-5.3,16.21,16.21,0,0,0,.31-7.27A16.2,16.2,0,0,0,19,26.4c-2.2-2.37-7.55-2-10.58-.84"/><path class="cls-2" d="M40.09,45.73c5.32,3.43,11.44,1.54,14.77-3.62A13.55,13.55,0,0,0,57,32.65a10.83,10.83,0,0,0-5.54-7.78,9,9,0,0,0-9.37.72C37.41,29.17,33.75,39,38.1,44a12.06,12.06,0,0,0,6.79,3.61"/><path class="cls-2" d="M22.62,12.08h0c-5.18,1.52-3.6,1.67-7.93,1.27,3-.15,2.77-.44,5.75-.59,2.26,8,5,15.9,7,24"/><path class="cls-2" d="M23,21.21a73.32,73.32,0,0,0,16.66-3.88C41,24.1,44.47,30.4,47.2,36.74"/><path class="cls-2" d="M23.88,24.23A93.06,93.06,0,0,1,11.42,38.78a121.71,121.71,0,0,0,16.07-2c2.32-6.8,7.13-12,10.66-18.3"/><path class="cls-2" d="M39.06,12.08c1.62.59,3.25,1.18,4.85,1.85a6.25,6.25,0,0,1,2.27,1.37.25.25,0,0,1,.1.2.29.29,0,0,1-.11.18c-.54.45-1.4.69-1.47,1.38"/><path class="cls-2" d="M39.64,17.46a1.4,1.4,0,0,1,.72-.78l2-1.31"/></g></svg>