<svg xmlns="http://www.w3.org/2000/svg" viewBox="0 0 60 60"><defs><style>.cls-1{fill:#fff6b1;}.cls-2{fill:none;stroke:#0042ff;stroke-linecap:round;stroke-linejoin:round;stroke-width:3px;}</style></defs><title>reisen</title><g id="Ebene_2" data-name="Ebene 2"><circle class="cls-1" cx="30" cy="30" r="30"/></g><g id="Reisen"><path class="cls-2" d="M10.82,51.35c4.14-11.73,8.24-27.09,12-38.94,1.75,12,3.92,23.72,6.85,35.48"/><path class="cls-2" d="M18.91,28.93a8.31,8.31,0,0,0,2.39,3.15c.75-1.58,2.91-4.3,3.8-5.81"/><path class="cls-2" d="M27.52,32.22c2.18-5,3.46-11.12,5.64-16.09,2.35,9.9,5.61,21,8,30.9"/><path class="cls-2" d="M37,31c-.69,1.68-1.24,4.24-2.52,5.53-.11.11-2-.9-2.17-.87s-.19,1.58-.36,1.45c-1.73-1.24-1.75-3.25-3.08-4.91"/><path class="cls-2" d="M44.73,36.68l-.5.32a15.25,15.25,0,0,0,4.45-7.11c.26.83.33,1.3.6,2.13a16.75,16.75,0,0,0,2.66,5.76"/><path class="cls-2" d="M43.6,42.28a8.93,8.93,0,0,0,4.32-4.5c.62-1.55.3-3.38.67-5a16.48,16.48,0,0,0,2.66,7.55"/><path class="cls-2" d="M47.6,35.07a8.72,8.72,0,0,0-1.24,2.36,4,4,0,0,1-1.63,2.06"/><path class="cls-2" d="M47.63,38.26c1,2.27,3.18,3.74,5.26,5.08"/><path class="cls-2" d="M47.87,40.4a5.54,5.54,0,0,1,.64,3.81,9.94,9.94,0,0,0,0,3.92"/><path class="cls-2" d="M6.58,53.09c16.1-5,31.54-4.42,48-5"/><path class="cls-2" d="M5.41,9.33A4,4,0,0,1,6.47,7.86a1.48,1.48,0,0,1,.81-.42c.64-.06,1.13.53,1.5,1a1.83,1.83,0,0,1,3.55-.32"/><path class="cls-2" d="M8.07,14.82a2.65,2.65,0,0,1,1.38-1.28,1.34,1.34,0,0,1,1.63.63,1.47,1.47,0,0,1,2.85-.45"/></g></svg>