<svg xmlns="http://www.w3.org/2000/svg" viewBox="0 0 60 60"><defs><style>.cls-1{fill:#fff6b1;}.cls-2{fill:none;stroke:#0042ff;stroke-linecap:round;stroke-linejoin:round;stroke-width:3px;}</style></defs><title>schmuck</title><g id="Ebene_2" data-name="Ebene 2"><circle class="cls-1" cx="30" cy="30" r="30"/></g><g id="Schmuck"><ellipse class="cls-2" cx="19.75" cy="26.69" rx="14.1" ry="14.37" transform="translate(-12.94 20.88) rotate(-43.43)"/><path class="cls-2" d="M23.57,36.9a15.84,15.84,0,0,0-.06,5.45,13.09,13.09,0,0,0,2,4.87c4,6,12.74,8.13,19.24,5s10.23-11,9-18.11C50.48,14.76,26.3,20.57,23.57,36.9Z"/><path class="cls-2" d="M15.65,12.29,13.8,8.63c-.27-.53-.5-1.27-.05-1.64a1.44,1.44,0,0,1,.64-.22,50.94,50.94,0,0,0,6.47-1.48l1.28,1.12A14.46,14.46,0,0,0,20.33,12"/><path class="cls-2" d="M41,21.74A8,8,0,0,0,40,19"/><path class="cls-2" d="M38.73,16a2.79,2.79,0,0,1-.62-1.84"/><path class="cls-2" d="M37.34,11a6,6,0,0,1-.14-1.69"/><path class="cls-2" d="M36.59,4.94l.15-1"/><path class="cls-2" d="M44.45,21.52a4.72,4.72,0,0,0,2.3-1.11"/><path class="cls-2" d="M49.29,18.38a2,2,0,0,0,1.29-1.13"/><path class="cls-2" d="M52.67,14.85A5.9,5.9,0,0,0,54.48,13"/></g></svg>