<svg xmlns="http://www.w3.org/2000/svg" viewBox="0 0 60 60"><defs><style>.cls-1{fill:#fff6b1;}.cls-2{fill:none;stroke:#0042ff;stroke-linecap:round;stroke-linejoin:round;stroke-width:3px;}</style></defs><title>schreibwaren</title><g id="Ebene_2" data-name="Ebene 2"><circle class="cls-1" cx="30" cy="30" r="30"/></g><g id="Schreibwaren"><path class="cls-2" d="M16.05,52.86,42.47,28.61c3.7-3.4,7.33-6.79,10.63-10.48A5.63,5.63,0,0,0,52,14c-.92-1-2.21-1-4.23-.42L12,46.39a11.3,11.3,0,0,0-1.83,3.39L8.47,54.13A43.94,43.94,0,0,0,16.05,52.86Z"/><path class="cls-2" d="M10.37,48.68l1.81,2.71"/><path class="cls-2" d="M21.17,42.91l2.7-2.47,23-21.14"/><path class="cls-2" d="M16.37,32.89Q10.46,38,4.06,42.49A6.25,6.25,0,0,1,4.74,40c.86-1.29,1.81-2.49,2.77-3.69l4.94-6.21c7.15-9,16.43-16,24.86-23.67a8.53,8.53,0,0,1,4,4A66.4,66.4,0,0,1,30.9,20.77C25.82,24.67,21.22,28.72,16.37,32.89Z"/><path class="cls-2" d="M40.6,7.05a9.72,9.72,0,0,0,1.22-1.18"/><path class="cls-2" d="M14,30.72a3.39,3.39,0,0,0,.7.86"/><path class="cls-2" d="M20.83,15.68a87.55,87.55,0,0,1,10-8.5l.45-.41c.39.36,1.21.6,1.47,1.05"/><path class="cls-2" d="M55.1,52.34c-6.35-.91-12.79.64-19.21.63a55.13,55.13,0,0,0-5-4.12c6.26-4.77,12.11-10.2,18.36-15a15.31,15.31,0,0,1,4.46,2.33c1.84,1.48,1.47,3.56,2.22,5.8-4.76,3.12-7.08,6.54-14.16,10.66"/><path class="cls-2" d="M41.62,41.82q2.19,2.59,4.24,5.31"/><path class="cls-2" d="M43.9,40.06a11.86,11.86,0,0,0,1.65,3.61L47,38.9c.1,1.81,1.13,4.1,1.22,5.91,1.31-2.32-.25-5.52.87-7.9.82,2.17.08,4.58,1.08,6.71,1.18-1.47.42-4.53,1.78-5.91.31,1.15.46,3.24.66,4.41.28-.8,1-2,1.33-2.76"/></g></svg>