<svg xmlns="http://www.w3.org/2000/svg" viewBox="0 0 60 60"><defs><style>.cls-1{fill:#fff6b1;}.cls-2{fill:none;stroke:#0042ff;stroke-linecap:round;stroke-linejoin:round;stroke-width:3px;}</style></defs><title>spiel</title><g id="Ebene_2" data-name="Ebene 2"><circle class="cls-1" cx="30" cy="30" r="30"/></g><g id="Spiel"><path class="cls-2" d="M27.67,52.81c-5.14,1.33-18.8,2.47-24.1,2.86.74-7.19,6.35-19,7.09-26.15-5.45-2.19-5.75-12.47,1.82-13.35C18.79,15.45,24,24.58,17.08,29,17.73,36.35,26.18,45.58,27.67,52.81Z"/><path class="cls-2" d="M25.62,22.48c1-4,4.61-10.57,6.26-14.52,7,1.17,12,1.44,18.43,2.79A93.48,93.48,0,0,0,44.7,26c-6.16-1.38-12.86-2.45-19.08-3.52.93,3,1.83,9.86,2.27,13"/><path class="cls-2" d="M44.51,25.89c.3,2.6,3.23,11.25,4.2,13.68"/><path class="cls-2" d="M27.89,35.43C34.58,38.1,41.14,39,48.71,39.57"/><path class="cls-2" d="M50.31,10.75C52.17,15.86,54.7,21.87,55,22.27"/><path class="cls-2" d="M54.93,22.1c-1.43,6.09-3.29,13.26-6.22,17.47"/><path class="cls-2" d="M37.81,16a.5.5,0,0,0-.55.55.44.44,0,0,0,.7.23.39.39,0,0,0-.28-.63"/><path class="cls-2" d="M31.18,27.85a.8.8,0,0,0,.69,1.32,1.61,1.61,0,0,0-.14-.84l-.58,0"/><path class="cls-2" d="M35.65,31.52c-.21,0-.31.26-.28.47a.62.62,0,0,0,.48.5.43.43,0,0,0,.5-.42c0-.24-.39-.4-.55-.21"/><path class="cls-2" d="M39.94,34.21a.76.76,0,0,0,.47,1.1.58.58,0,0,0-.56-.81"/><path class="cls-2" d="M49.49,24.87c.08-.28.26-.53.3-.43a1.27,1.27,0,0,1-.2.69c-.12.17-.18,0-.1-.26"/><path class="cls-2" d="M34.19,12.37a.19.19,0,1,1,0,.34.2.2,0,0,1,0-.33"/><path class="cls-2" d="M40.44,20.79a.24.24,0,0,0-.14.23.18.18,0,0,0,.15.11.16.16,0,0,0,0-.28"/><path class="cls-2" d="M43,13.79c-.09,0-.21.11-.18.21A.11.11,0,0,0,43,14a.1.1,0,0,0-.08-.16"/><path class="cls-2" d="M32.2,18.33a.19.19,0,0,0-.12.22.25.25,0,0,0,.24,0c.06-.05,0-.19-.08-.15"/></g></svg>