<svg xmlns="http://www.w3.org/2000/svg" viewBox="0 0 60 60"><defs><style>.cls-1{fill:#fff6b1;}.cls-2{fill:none;stroke:#0042ff;stroke-linecap:round;stroke-linejoin:round;stroke-width:3px;}</style></defs><title>spirituosen</title><g id="Ebene_2" data-name="Ebene 2"><circle class="cls-1" cx="30" cy="30" r="30"/></g><g id="sprit"><path class="cls-2" d="M25.12,5.46A8.41,8.41,0,0,1,19.91,6c.05.39-.34.61-.29,1V26.4a4.44,4.44,0,0,0-4.52,3.66,13.89,13.89,0,0,0-.21,4V54.19c3.62,1,8.6,1.73,12.27-.3l.29,0,.37-3.2c.28-5.58.06-10.65.34-16.23a12.52,12.52,0,0,0-.38-4.77c-.53-1.51-1.24-3-2.84-3v-12c0-2.14-.11-4.31,0-6.44,0-.55.22-1.25.21-1.75-.08-2-2-1.7-3.17-1.7-1,0-1.18.8-2.07,1.21"/><path class="cls-2" d="M27.3,28.32a7.42,7.42,0,0,1,5.92-6.06V10.87a9.25,9.25,0,0,0,6-.64c-.06.2,0,.59-.1.79v10.8a7.86,7.86,0,0,1,5,2.16,7,7,0,0,1,2.35,4.93V47c.13-.11.18.17.08.31-1,1.48-3,1.89-4.79,2.18-4.64.77-9.63,1.49-13.84-.58"/><path class="cls-2" d="M33.5,10a5.84,5.84,0,0,1,5.08-.52"/><path class="cls-2" d="M34.57,43.89q2.22-2.84,4.48-5.64c.49-.61,1-1.22,1.5-1.8,0,0,.08-.07.12-.05s0,.1,0,.07"/><path class="cls-2" d="M34.33,37.5a.24.24,0,0,0-.29-.14.23.23,0,0,0-.13.29,1,1,0,0,0,.4-.09.23.23,0,0,0-.07-.19"/><path class="cls-2" d="M40.51,43.65a.37.37,0,0,0-.46.54h.53a.45.45,0,0,0-.19-.51"/></g></svg>