<svg xmlns="http://www.w3.org/2000/svg" viewBox="0 0 60 60"><defs><style>.cls-1{fill:#fff6b1;}.cls-2{fill:none;stroke:#0042ff;stroke-linecap:round;stroke-linejoin:round;stroke-width:3px;}</style></defs><title>sport</title><g id="Ebene_2" data-name="Ebene 2"><circle class="cls-1" cx="30" cy="30" r="30"/></g><g id="Ebene_31" data-name="Ebene 31"><path class="cls-2" d="M39.49,11.26a4,4,0,0,0,1.94.38,2.24,2.24,0,0,0,1.06-.17,2.11,2.11,0,0,0,.8-1.05,5.23,5.23,0,0,0,.48-1.3A3,3,0,0,0,42.21,6C38.71,4.18,36.83,9.69,39.49,11.26Z"/><path class="cls-2" d="M16.38,20c2.75-2.6,5.73-5.32,9.47-5.92A17,17,0,0,1,31,14.2a16.1,16.1,0,0,1,4.29,1c.73.32,1.41.74,2.14,1.06a12.4,12.4,0,0,0,7.69.5c2.55-.57,8-3.15,10.35-4.26.62-.29-2,3.23-5.61,5.15a12.54,12.54,0,0,1-7.57,1.14c-1.67-.5-3,0-4.58-.83a24.86,24.86,0,0,0-4.3-1.58C25.85,14,17.8,18.82,16.38,20Z"/><path class="cls-2" d="M42.21,17.52a56.45,56.45,0,0,0-6.06,11.31A1.69,1.69,0,0,0,36,30.14a1.5,1.5,0,0,0,.59.58,49.8,49.8,0,0,0,6.25,3.52c.59.26-.48,2.16-.25,2.76h0c-1.57,4.37-2.24,7.48-4.12,11.59-1,2.26-2.17,4.75-4.43,5.78,1-3.1.39-8.72,1.91-11.61,1-1.89.2-3.48-.44-5.52a1.5,1.5,0,0,0-1-1.09c-2.58-.88-5.17-1.7-7.76-2.55a4.34,4.34,0,0,1-2-1.1c-1.09-1.24-.47-3.18.24-4.68a96.44,96.44,0,0,1,5.9-10.61"/><path class="cls-2" d="M23.24,37.69a40.73,40.73,0,0,1-2.53,3.82A5,5,0,0,1,19.18,43a5.3,5.3,0,0,1-1.89.46c-4,.48-7.7,2.18-11.76,2.66"/><path class="cls-2" d="M6.33,46.14c-.61,0-2-.13-1.86.46a1.74,1.74,0,0,0,1.3,1.16,5.06,5.06,0,0,0,1.82,0c4.12-.49,9.25.79,13.34.08.62-.11,3.68-3.78,4.2-4.8.78-1.55,1.71-2.72,2-4.76"/><path class="cls-2" d="M23.09,37.23a1.2,1.2,0,0,1,.38,0,3,3,0,0,1,.83.16c1,.27,1.92.59,2.86.94l-.17,0"/></g></svg>