<svg xmlns="http://www.w3.org/2000/svg" viewBox="0 0 60 60"><defs><style>.cls-1,.cls-3{fill:#fff6b1;}.cls-2{fill:none;}.cls-2,.cls-3{stroke:#0042ff;stroke-linecap:round;stroke-linejoin:round;stroke-width:3px;}</style></defs><title>taschen-rucksaecke</title><g id="Ebene_2" data-name="Ebene 2"><circle class="cls-1" cx="30" cy="30" r="30"/></g><g id="Taschen_und_Rucksäcke" data-name="Taschen und Rucksäcke"><path class="cls-2" d="M4.89,38.92q16-3.06,32-6.43a78.15,78.15,0,0,1-3.27-19.74c-10.18,2.09-20.38,3.82-30.55,5.9C4.11,25.39,5.37,32.12,4.89,38.92Z"/><path class="cls-2" d="M3.49,18.31a20.67,20.67,0,0,1,3.07-2C6.22,15.56,6.3,14.8,6,14a20.91,20.91,0,0,0,3.76.69,34.5,34.5,0,0,0,7.66-.35C22.55,13.69,27.9,12.45,31.8,9a20.84,20.84,0,0,0-1.68,3c1.18.26,2.38.49,3.57.7"/><path class="cls-2" d="M13.81,14.78c-.17-2.7-.63-4-.36-5.94.3-2.15.7-4.53,4.07-5.14,4.33-.79,5.59,1.92,6,4.4a20.57,20.57,0,0,1,.2,5.37"/><path class="cls-1" d="M33.24,21.39c.69.52.1,0,0-.09l.23.29c0-.08-.1-.16-.14-.24a2,2,0,0,1-.13-.25l.15.34c-.1-.11-.11-.4-.15-.54-.12-.46,0,.65,0,.07,0-.2,0-.4,0-.61s0-.17,0-.26c0-.28,0-.23,0,.15a2.82,2.82,0,0,0,.09-.52c.08-.37.17-.74.28-1.1l.12-.43c0-.07.25-.67.08-.25s.09-.14.13-.22.17-.24.24-.36c-.32.56-.15.2,0,0,.42-.39-.44.26-.05,0l.33-.19c.58-.31-.41.11,0,0l.77-.2c.43-.1-.68.06,0,0l.4,0q.48,0,1,0l.41,0c.49,0-.59-.11-.16,0s.57.13.86.21-.56-.32-.09,0l.16.09c.21.14.14.07-.22-.19a2.83,2.83,0,0,0,.25.24c-.26-.36-.33-.44-.2-.22q-.24-.64-.12-.27a2.5,2.5,0,0,0,4.82-1.33c-1.08-3.46-5.5-3.92-8.54-3.31a6.38,6.38,0,0,0-4,2.77,11.51,11.51,0,0,0-1.47,5,6.38,6.38,0,0,0,.31,2.81,5.79,5.79,0,0,0,.68,1.39,6.54,6.54,0,0,0,1.49,1.48,2.48,2.48,0,0,0,1.92.26,2.58,2.58,0,0,0,1.5-1.15,2.55,2.55,0,0,0,.25-1.93,2.88,2.88,0,0,0-1.15-1.49Z"/><path class="cls-1" d="M24.23,29.1a73.4,73.4,0,0,1-2.82,9.16,2.48,2.48,0,0,0,.25,1.92,2.5,2.5,0,0,0,4.57-.59,71.76,71.76,0,0,0,2.82-9.16,2.5,2.5,0,1,0-4.82-1.33Z"/><path class="cls-3" d="M53.38,33.29a6.86,6.86,0,0,0-2-3.45,20.89,20.89,0,0,0-15-6.5,6.71,6.71,0,0,0-6.07,3.09A32.6,32.6,0,0,0,26.6,35l-2.43,7.41c-.76,2.31-1.93,4.71-2.31,7.12s2.72,2.4,4.93,2.91l9.58,2.22c3.46.8,7.11,1.38,10.5,2.43a1.13,1.13,0,0,0,.68,0,.65.65,0,0,0,.3-.37c2.19-4.94,3.23-10.29,4.26-15.6.36-1.9.73-3.79,1.09-5.68A6.56,6.56,0,0,0,53.38,33.29Z"/><path class="cls-3" d="M33.41,23.3c-.17-1.22-.63-2.4-.74-3.63A3.43,3.43,0,0,1,34,16.38a4.22,4.22,0,0,1,2.28-.46,1.87,1.87,0,0,1,1.1.26,1.38,1.38,0,0,1,.43.58A5.55,5.55,0,0,1,38,19.48c-.08.95-.21,1.9-.38,2.84"/><path class="cls-3" d="M49.7,27.68a23.71,23.71,0,0,1,3.52-4.34,2,2,0,0,1,1-.62,1.75,1.75,0,0,1,1.37.48,5.13,5.13,0,0,1,1.36,1.64,1.62,1.62,0,0,1,.24,1,2,2,0,0,1-.48.89q-1.47,1.83-3.05,3.56"/><path class="cls-3" d="M41.26,23.18A2.55,2.55,0,0,1,42.36,22a4.46,4.46,0,0,1,2.78-.31A2.29,2.29,0,0,1,46.84,23c.14.45.69,1.7,0,2.14"/><path class="cls-3" d="M47.49,41.9a56.13,56.13,0,0,0-2.12,10.82q-9.07-1.47-18-3.58L30,38.67a.85.85,0,0,1,.32-.58.83.83,0,0,1,.54,0,76.32,76.32,0,0,1,7.82,1.29C39.42,39.52,47.54,41.71,47.49,41.9Z"/><path class="cls-3" d="M29.73,41.63q7.89,1.95,15.83,3.64"/><path class="cls-3" d="M41.4,44.35a12.71,12.71,0,0,0-.72,2.42"/></g></svg>