<svg xmlns="http://www.w3.org/2000/svg" viewBox="0 0 60 60"><defs><style>.cls-1{fill:#fff6b1;}.cls-2{fill:none;stroke:#0042ff;stroke-linecap:round;stroke-linejoin:round;stroke-width:3px;}</style></defs><title>yoga</title><g id="Ebene_2" data-name="Ebene 2"><circle class="cls-1" cx="30" cy="30" r="30"/></g><g id="yoga"><path class="cls-2" d="M27.9,13.58c-.92.27-2,.7-2.22,1.64a2.57,2.57,0,0,0,0,.83,12.19,12.19,0,0,0,1.19,4.09,2.11,2.11,0,0,0,.61.8c.73.51,1.76,0,2.33-.71a4.28,4.28,0,0,0,.91-3.63A3.48,3.48,0,0,0,28.12,14a7.71,7.71,0,0,0-1.23,2.07,8.36,8.36,0,0,0,1.63-.37,3.21,3.21,0,0,1-.75,1A4.15,4.15,0,0,1,29,16.59,4.15,4.15,0,0,1,27.93,18a3.57,3.57,0,0,1,1.22-.07l-1.24,1.17a.36.36,0,0,1,.51.24"/><path class="cls-2" d="M21.07,4.7c-2,1.68-2.53,4.57-2.59,7.21a34,34,0,0,0,.86,8.47,8.18,8.18,0,0,0,2.5,4.8,9.21,9.21,0,0,0,4.34,1.44c2.66.41,5.62.76,7.84-.77,2.64-1.82,3.09-5.47,3.26-8.67a29.84,29.84,0,0,0-.22-7.07A10.43,10.43,0,0,0,33.78,4"/><path class="cls-2" d="M23.51,26.07A128.75,128.75,0,0,0,21.14,47a102.47,102.47,0,0,0-10.55,2.09,2.65,2.65,0,0,0-1.65.78c-3.4,5,1.66,6.06,2.22,6.12,4.85.52,14.8-2.31,19.65-1.79,8.23.88,16.81,1.95,18.19,1.7,1.84-.33,1.84-.33,2.88-2.35.46-.9.56-3.74-.31-4.25-3.94-2.33-7.24-1.52-11.81-1.32a3.38,3.38,0,0,1-1.87-.27,3.39,3.39,0,0,1-1.27-2.2c-1.64-6.13-3.3-12.38-3-18.72"/><path class="cls-2" d="M18.52,11c-.14,4.9-.42,5.87-.05,10.75a24.66,24.66,0,0,0,1,4.88c.42,1.15,2.32,2.08,3.42,2.62"/><path class="cls-2" d="M37.28,11.7c.29,3.77.07,7.75.1,11.19,0,4.48-1.9,5.89-3.43,6.9"/><path class="cls-2" d="M37.48,47.62l-9.64-.3a5,5,0,0,0-1.49.1,5,5,0,0,0-1.93,1.23,7.3,7.3,0,0,0-2,2.3c-.43.92.62,4.37,1.36,5.07"/><path class="cls-2" d="M23.66,56.71a98.31,98.31,0,0,1,11.49-1.46"/></g></svg>